ISO-10303-21;
HEADER;
FILE_DESCRIPTION(('Open CASCADE Model'),'2;1');
FILE_NAME('Open CASCADE Shape Model','2026-05-12T13:50:33',('Author'),(
    'Open CASCADE'),'Open CASCADE STEP processor 7.8','Open CASCADE 7.8'
  ,'Unknown');
FILE_SCHEMA(('AUTOMOTIVE_DESIGN { 1 0 10303 214 1 1 1 1 }'));
ENDSEC;
DATA;
#1 = APPLICATION_PROTOCOL_DEFINITION('international standard',
  'automotive_design',2000,#2);
#2 = APPLICATION_CONTEXT(
  'core data for automotive mechanical design processes');
#3 = SHAPE_DEFINITION_REPRESENTATION(#4,#10);
#4 = PRODUCT_DEFINITION_SHAPE('','',#5);
#5 = PRODUCT_DEFINITION('design','',#6,#9);
#6 = PRODUCT_DEFINITION_FORMATION('','',#7);
#7 = PRODUCT('Open CASCADE STEP translator 7.8 1',
  'Open CASCADE STEP translator 7.8 1','',(#8));
#8 = PRODUCT_CONTEXT('',#2,'mechanical');
#9 = PRODUCT_DEFINITION_CONTEXT('part definition',#2,'design');
#10 = ADVANCED_BREP_SHAPE_REPRESENTATION('',(#11,#15),#867);
#11 = AXIS2_PLACEMENT_3D('',#12,#13,#14);
#12 = CARTESIAN_POINT('',(0.,0.,0.));
#13 = DIRECTION('',(0.,0.,1.));
#14 = DIRECTION('',(1.,0.,-0.));
#15 = MANIFOLD_SOLID_BREP('',#16);
#16 = CLOSED_SHELL('',(#17,#714,#784,#859,#863));
#17 = ADVANCED_FACE('',(#18),#32,.T.);
#18 = FACE_BOUND('',#19,.T.);
#19 = EDGE_LOOP('',(#20,#49,#644,#686,#687));
#20 = ORIENTED_EDGE('',*,*,#21,.T.);
#21 = EDGE_CURVE('',#22,#24,#26,.T.);
#22 = VERTEX_POINT('',#23);
#23 = CARTESIAN_POINT('',(-5.633375276078E-17,0.,0.23));
#24 = VERTEX_POINT('',#25);
#25 = CARTESIAN_POINT('',(-2.370653477961E-16,5.E-02,0.23));
#26 = SEAM_CURVE('',#27,(#31,#42),.PCURVE_S1.);
#27 = LINE('',#28,#29);
#28 = CARTESIAN_POINT('',(0.,0.,0.23));
#29 = VECTOR('',#30,1.);
#30 = DIRECTION('',(0.,1.,0.));
#31 = PCURVE('',#32,#37);
#32 = CYLINDRICAL_SURFACE('',#33,0.23);
#33 = AXIS2_PLACEMENT_3D('',#34,#35,#36);
#34 = CARTESIAN_POINT('',(0.,0.,0.));
#35 = DIRECTION('',(0.,1.,0.));
#36 = DIRECTION('',(0.,-0.,1.));
#37 = DEFINITIONAL_REPRESENTATION('',(#38),#41);
#38 = B_SPLINE_CURVE_WITH_KNOTS('',1,(#39,#40),.UNSPECIFIED.,.F.,.F.,(2,
    2),(0.,0.90497455189),.PIECEWISE_BEZIER_KNOTS.);
#39 = CARTESIAN_POINT('',(6.28318530718,0.));
#40 = CARTESIAN_POINT('',(6.28318530718,0.90497455189));
#41 = ( GEOMETRIC_REPRESENTATION_CONTEXT(2) 
PARAMETRIC_REPRESENTATION_CONTEXT() REPRESENTATION_CONTEXT('2D SPACE',''
  ) );
#42 = PCURVE('',#32,#43);
#43 = DEFINITIONAL_REPRESENTATION('',(#44),#48);
#44 = LINE('',#45,#46);
#45 = CARTESIAN_POINT('',(0.,0.));
#46 = VECTOR('',#47,1.);
#47 = DIRECTION('',(0.,1.));
#48 = ( GEOMETRIC_REPRESENTATION_CONTEXT(2) 
PARAMETRIC_REPRESENTATION_CONTEXT() REPRESENTATION_CONTEXT('2D SPACE',''
  ) );
#49 = ORIENTED_EDGE('',*,*,#50,.F.);
#50 = EDGE_CURVE('',#51,#24,#53,.T.);
#51 = VERTEX_POINT('',#52);
#52 = CARTESIAN_POINT('',(-8.68521511932E-08,5.000007666294E-02,0.23));
#53 = SURFACE_CURVE('',#54,(#155,#259),.PCURVE_S1.);
#54 = B_SPLINE_CURVE_WITH_KNOTS('',8,(#55,#56,#57,#58,#59,#60,#61,#62,
    #63,#64,#65,#66,#67,#68,#69,#70,#71,#72,#73,#74,#75,#76,#77,#78,#79,
    #80,#81,#82,#83,#84,#85,#86,#87,#88,#89,#90,#91,#92,#93,#94,#95,#96,
    #97,#98,#99,#100,#101,#102,#103,#104,#105,#106,#107,#108,#109,#110,
    #111,#112,#113,#114,#115,#116,#117,#118,#119,#120,#121,#122,#123,
    #124,#125,#126,#127,#128,#129,#130,#131,#132,#133,#134,#135,#136,
    #137,#138,#139,#140,#141,#142,#143,#144,#145,#146,#147,#148,#149,
    #150,#151,#152,#153,#154),.UNSPECIFIED.,.F.,.F.,(9,7,7,7,7,7,7,7,7,7
    ,7,7,7,7,9),(0.,3.77916030556E-04,9.592526901234E-04,
    1.453555097727E-03,1.563674224462E-03,1.621605753184E-03,
    1.641425888714E-03,4.482006547163E-03,2.875016573779E-02,
    5.504306745295E-02,0.218273685688,0.499773031103,0.721072567214,
    0.946229641282,1.),.UNSPECIFIED.);
#55 = CARTESIAN_POINT('',(-3.340894432409E-02,-4.163336342344E-17,
    -0.227560634643));
#56 = CARTESIAN_POINT('',(-3.221162240689E-02,1.791916460218E-03,
    -0.227736417125));
#57 = CARTESIAN_POINT('',(-3.101412651391E-02,3.584097505037E-03,
    -0.227904870752));
#58 = CARTESIAN_POINT('',(-2.981652361479E-02,5.376440236381E-03,
    -0.228066004267));
#59 = CARTESIAN_POINT('',(-2.861888158288E-02,7.168841284676E-03,
    -0.22821982737));
#60 = CARTESIAN_POINT('',(-2.742126919528E-02,8.961196808851E-03,
    -0.228366350721));
#61 = CARTESIAN_POINT('',(-2.622375613281E-02,1.075340249634E-02,
    -0.228505585937));
#62 = CARTESIAN_POINT('',(-2.502641298003E-02,1.254535356306E-02,
    -0.228637545594));
#63 = CARTESIAN_POINT('',(-2.198784624611E-02,1.70928946305E-02,
    -0.228954061779));
#64 = CARTESIAN_POINT('',(-2.016732161533E-02,1.981750580431E-02,
    -0.229126575487));
#65 = CARTESIAN_POINT('',(-1.836775256622E-02,2.251075504954E-02,
    -0.229280519566));
#66 = CARTESIAN_POINT('',(-1.658914751296E-02,2.517262978347E-02,
    -0.229416609228));
#67 = CARTESIAN_POINT('',(-1.483150805064E-02,2.780312806604E-02,
    -0.229535539681));
#68 = CARTESIAN_POINT('',(-1.309482895517E-02,3.040225859982E-02,
    -0.229637986128));
#69 = CARTESIAN_POINT('',(-1.137909818333E-02,3.297004073006E-02,
    -0.22972460377));
#70 = CARTESIAN_POINT('',(-8.243231090259E-03,3.766322396384E-02,
    -0.229856758656));
#71 = CARTESIAN_POINT('',(-6.323086492666E-03,4.05373049678E-02,
    -0.229927571292));
#72 = CARTESIAN_POINT('',(-4.359556627578E-03,4.347468953421E-02,
    -0.229976576481));
#73 = CARTESIAN_POINT('',(-2.661635628354E-03,4.601738197302E-02,
    -0.229994892968));
#74 = CARTESIAN_POINT('',(-1.404477510096E-03,4.789913867334E-02,
    -0.229997518328));
#75 = CARTESIAN_POINT('',(-6.410120241858E-04,4.903933823718E-02,
    -0.229999692468));
#76 = CARTESIAN_POINT('',(-3.115153435464E-04,4.953597045268E-02,
    -0.229999803367));
#77 = CARTESIAN_POINT('',(-2.122484946531E-04,4.968602009644E-02,
    -0.229999902777));
#78 = CARTESIAN_POINT('',(-1.794715237128E-04,4.973526469303E-02,
    -0.229999930316));
#79 = CARTESIAN_POINT('',(-1.424337232962E-04,4.979140927738E-02,
    -0.229999957749));
#80 = CARTESIAN_POINT('',(-1.08604646736E-04,4.984360851666E-02,
    -0.229999978896));
#81 = CARTESIAN_POINT('',(-8.249261538497E-05,4.988517891676E-02,
    -0.229999990929));
#82 = CARTESIAN_POINT('',(-6.564471861568E-05,4.991359882234E-02,
    -0.229999994369));
#83 = CARTESIAN_POINT('',(-5.664681382055E-05,4.993050841682E-02,
    -0.229999993091));
#84 = CARTESIAN_POINT('',(-4.821783243621E-05,4.994760251111E-02,
    -0.229999994964));
#85 = CARTESIAN_POINT('',(-4.53453407257E-05,4.995367455662E-02,
    -0.22999999555));
#86 = CARTESIAN_POINT('',(-4.267893187795E-05,4.995990549939E-02,
    -0.229999996057));
#87 = CARTESIAN_POINT('',(-4.039069571954E-05,4.996624829104E-02,
    -0.229999996468));
#88 = CARTESIAN_POINT('',(-3.865193130605E-05,4.997262919427E-02,
    -0.229999996765));
#89 = CARTESIAN_POINT('',(-3.763314692205E-05,4.997894778286E-02,
    -0.22999999693));
#90 = CARTESIAN_POINT('',(-3.750406008107E-05,4.998507694167E-02,
    -0.229999996944));
#91 = CARTESIAN_POINT('',(-3.875162051827E-05,4.999284240735E-02,
    -0.229999996736));
#92 = CARTESIAN_POINT('',(-3.917823061947E-05,4.999476438448E-02,
    -0.229999996664));
#93 = CARTESIAN_POINT('',(-3.970592945383E-05,4.999662873142E-02,
    -0.229999996574));
#94 = CARTESIAN_POINT('',(-4.032618620012E-05,4.999843562527E-02,
    -0.229999996467));
#95 = CARTESIAN_POINT('',(-4.102943759126E-05,5.000018548687E-02,
    -0.229999996343));
#96 = CARTESIAN_POINT('',(-4.18050879144E-05,5.000187898077E-02,
    -0.229999996203));
#97 = CARTESIAN_POINT('',(-4.264150901086E-05,5.000351701527E-02,
    -0.229999996049));
#98 = CARTESIAN_POINT('',(-1.702952240798E-04,5.02320772232E-02,
    -0.229999971891));
#99 = CARTESIAN_POINT('',(-4.216446126828E-04,5.038441017652E-02,
    -0.229999578157));
#100 = CARTESIAN_POINT('',(-7.09752652568E-04,5.050200489604E-02,
    -0.229998964923));
#101 = CARTESIAN_POINT('',(-9.782011608822E-04,5.061411211903E-02,
    -0.22999820937));
#102 = CARTESIAN_POINT('',(-1.201975325436E-03,5.073932802631E-02,
    -0.22999731561));
#103 = CARTESIAN_POINT('',(-1.387463704705E-03,5.088559424223E-02,
    -0.229996214691));
#104 = CARTESIAN_POINT('',(-1.572458227828E-03,5.105019783472E-02,
    -0.229994764594));
#105 = CARTESIAN_POINT('',(-3.993575172258E-03,5.266850194992E-02,
    -0.229975540802));
#106 = CARTESIAN_POINT('',(-6.16126586462E-03,5.411658834223E-02,
    -0.229934982416));
#107 = CARTESIAN_POINT('',(-8.328345303704E-03,5.556464559331E-02,
    -0.229871074442));
#108 = CARTESIAN_POINT('',(-1.04945871452E-02,5.701228609148E-02,
    -0.22978382384));
#109 = CARTESIAN_POINT('',(-1.265983703591E-02,5.845904746594E-02,
    -0.229673243522));
#110 = CARTESIAN_POINT('',(-1.482376087421E-02,5.990479360732E-02,
    -0.229539350713));
#111 = CARTESIAN_POINT('',(-1.698592396339E-02,6.134958875499E-02,
    -0.229382165281));
#112 = CARTESIAN_POINT('',(-2.148671452195E-02,6.43569310467E-02,
    -0.229006194955));
#113 = CARTESIAN_POINT('',(-2.382481224014E-02,6.591920200593E-02,
    -0.228783378301));
#114 = CARTESIAN_POINT('',(-2.616015188998E-02,6.747962920113E-02,
    -0.228533292289));
#115 = CARTESIAN_POINT('',(-2.849239200172E-02,6.903798478205E-02,
    -0.228255975154));
#116 = CARTESIAN_POINT('',(-3.082119195849E-02,7.059404137572E-02,
    -0.227951469195));
#117 = CARTESIAN_POINT('',(-3.314621199634E-02,7.21475720865E-02,
    -0.227619820771));
#118 = CARTESIAN_POINT('',(-3.546711320423E-02,7.369835049606E-02,
    -0.227261080302));
#119 = CARTESIAN_POINT('',(-5.21644213224E-02,8.485514631382E-02,
    -0.224480329398));
#120 = CARTESIAN_POINT('',(-6.637318685863E-02,9.434914310987E-02,
    -0.221043330455));
#121 = CARTESIAN_POINT('',(-8.032949371318E-02,0.103674452085,
    -0.216577399927));
#122 = CARTESIAN_POINT('',(-9.395332382321E-02,0.112777606895,
    -0.211101318977));
#123 = CARTESIAN_POINT('',(-0.107164623379,0.121605116246,
    -0.204640397629));
#124 = CARTESIAN_POINT('',(-0.119883608686,0.130103670643,
    -0.197227300054));
#125 = CARTESIAN_POINT('',(-0.132031755984,0.13822080345,-0.188902852936
    ));
#126 = CARTESIAN_POINT('',(-0.163368763973,0.159159521985,
    -0.163875094065));
#127 = CARTESIAN_POINT('',(-0.181284821861,0.171130647588,
    -0.145468279075));
#128 = CARTESIAN_POINT('',(-0.196885641862,0.181554780319,
    -0.124755682399));
#129 = CARTESIAN_POINT('',(-0.209808970267,0.190189870839,
    -0.102075282754));
#130 = CARTESIAN_POINT('',(-0.219749211353,0.196831727183,
    -7.784451886713E-02));
#131 = CARTESIAN_POINT('',(-0.226484821713,0.201332318599,
    -5.254747880448E-02));
#132 = CARTESIAN_POINT('',(-0.229900986171,0.2036149272,
    -2.671030996346E-02));
#133 = CARTESIAN_POINT('',(-0.230074922883,0.203731148386,
    1.945023054362E-02));
#134 = CARTESIAN_POINT('',(-0.228100449056,0.202411847155,
    3.97771863808E-02));
#135 = CARTESIAN_POINT('',(-0.224072976978,0.19972077602,
    5.985679289573E-02));
#136 = CARTESIAN_POINT('',(-0.218034137088,0.195685751491,
    7.943339024791E-02));
#137 = CARTESIAN_POINT('',(-0.210066293188,0.190361807656,
    9.826334444364E-02));
#138 = CARTESIAN_POINT('',(-0.200287936083,0.18382811823,0.11612303384)
  );
#139 = CARTESIAN_POINT('',(-0.188847336677,0.176183755193,0.132814558321
    ));
#140 = CARTESIAN_POINT('',(-0.162756143547,0.158750180823,0.163791434795
    ));
#141 = CARTESIAN_POINT('',(-0.148052217894,0.148925334242,0.178030819441
    ));
#142 = CARTESIAN_POINT('',(-0.131979892372,0.138186152389,0.190711082983
    ));
#143 = CARTESIAN_POINT('',(-0.114737173553,0.126664937173,0.201688500592
    ));
#144 = CARTESIAN_POINT('',(-9.653240498335E-02,0.114500896916,
    0.210853666286));
#145 = CARTESIAN_POINT('',(-7.757629884072E-02,0.101834820466,
    0.218127068791));
#146 = CARTESIAN_POINT('',(-5.807828766559E-02,8.880664484147E-02,
    0.223453117315));
#147 = CARTESIAN_POINT('',(-3.351354712286E-02,7.239300102463E-02,
    0.227595924238));
#148 = CARTESIAN_POINT('',(-2.875917272397E-02,6.921632898815E-02,
    0.228281520024));
#149 = CARTESIAN_POINT('',(-2.398910331658E-02,6.602856913033E-02,
    0.228853610477));
#150 = CARTESIAN_POINT('',(-1.920524275865E-02,6.283324775025E-02,
    0.229311796491));
#151 = CARTESIAN_POINT('',(-1.441243829891E-02,5.962925016867E-02,
    0.229655748497));
#152 = CARTESIAN_POINT('',(-9.611164435637E-03,5.642245239504E-02,
    0.229885209469));
#153 = CARTESIAN_POINT('',(-4.806507143088E-03,5.321143496635E-02,
    0.229999995651));
#154 = CARTESIAN_POINT('',(-2.081228333561E-07,5.000013906925E-02,0.23)
  );
#155 = PCURVE('',#32,#156);
#156 = DEFINITIONAL_REPRESENTATION('',(#157),#258);
#157 = B_SPLINE_CURVE_WITH_KNOTS('',8,(#158,#159,#160,#161,#162,#163,
    #164,#165,#166,#167,#168,#169,#170,#171,#172,#173,#174,#175,#176,
    #177,#178,#179,#180,#181,#182,#183,#184,#185,#186,#187,#188,#189,
    #190,#191,#192,#193,#194,#195,#196,#197,#198,#199,#200,#201,#202,
    #203,#204,#205,#206,#207,#208,#209,#210,#211,#212,#213,#214,#215,
    #216,#217,#218,#219,#220,#221,#222,#223,#224,#225,#226,#227,#228,
    #229,#230,#231,#232,#233,#234,#235,#236,#237,#238,#239,#240,#241,
    #242,#243,#244,#245,#246,#247,#248,#249,#250,#251,#252,#253,#254,
    #255,#256,#257),.UNSPECIFIED.,.F.,.F.,(9,7,7,7,7,7,7,7,7,7,7,7,7,7,9
    ),(0.,3.77916030556E-04,9.592526901234E-04,1.453555097727E-03,
    1.563674224462E-03,1.621605753184E-03,1.641425888714E-03,
    4.482006547163E-03,2.875016573779E-02,5.504306745295E-02,
    0.218273685688,0.499773031103,0.721072567214,0.946229641282,1.),
  .UNSPECIFIED.);
#158 = CARTESIAN_POINT('',(3.287364648065,0.));
#159 = CARTESIAN_POINT('',(3.282103097167,1.791916460219E-03));
#160 = CARTESIAN_POINT('',(3.276845426488,3.584097505037E-03));
#161 = CARTESIAN_POINT('',(3.271591696472,5.376440236381E-03));
#162 = CARTESIAN_POINT('',(3.266341972375,7.168841284676E-03));
#163 = CARTESIAN_POINT('',(3.261096324265,8.961196808851E-03));
#164 = CARTESIAN_POINT('',(3.255854827019,1.075340249634E-02));
#165 = CARTESIAN_POINT('',(3.250617560328,1.254535356306E-02));
#166 = CARTESIAN_POINT('',(3.237334919403,1.70928946305E-02));
#167 = CARTESIAN_POINT('',(3.229384475568,1.981750580431E-02));
#168 = CARTESIAN_POINT('',(3.221532228483,2.251075504954E-02));
#169 = CARTESIAN_POINT('',(3.2137771795,2.517262978347E-02));
#170 = CARTESIAN_POINT('',(3.206118380024,2.780312806604E-02));
#171 = CARTESIAN_POINT('',(3.198554931516,3.040225859982E-02));
#172 = CARTESIAN_POINT('',(3.191085985489,3.297004073006E-02));
#173 = CARTESIAN_POINT('',(3.177439678705,3.766322396384E-02));
#174 = CARTESIAN_POINT('',(3.169085604393,4.05373049678E-02));
#175 = CARTESIAN_POINT('',(3.160547049478,4.347468953421E-02));
#176 = CARTESIAN_POINT('',(3.153165024577,4.601738197302E-02));
#177 = CARTESIAN_POINT('',(3.147699177965,4.789913867334E-02));
#178 = CARTESIAN_POINT('',(3.144379615074,4.903933823718E-02));
#179 = CARTESIAN_POINT('',(3.142947068471,4.953597045268E-02));
#180 = CARTESIAN_POINT('',(3.14251547326,4.968602009644E-02));
#181 = CARTESIAN_POINT('',(3.142372964641,4.973526469303E-02));
#182 = CARTESIAN_POINT('',(3.142211930683,4.979140927738E-02));
#183 = CARTESIAN_POINT('',(3.142064847712,4.984360851666E-02));
#184 = CARTESIAN_POINT('',(3.141951317128,4.988517891676E-02));
#185 = CARTESIAN_POINT('',(3.141878065405,4.991359882234E-02));
#186 = CARTESIAN_POINT('',(3.141838944087,4.993050841682E-02));
#187 = CARTESIAN_POINT('',(3.141802296341,4.994760251111E-02));
#188 = CARTESIAN_POINT('',(3.141789807246,4.995367455662E-02));
#189 = CARTESIAN_POINT('',(3.141778214164,4.995990549939E-02));
#190 = CARTESIAN_POINT('',(3.141768265311,4.996624829104E-02));
#191 = CARTESIAN_POINT('',(3.141760705466,4.997262919427E-02));
#192 = CARTESIAN_POINT('',(3.141756275968,4.997894778286E-02));
#193 = CARTESIAN_POINT('',(3.141755714721,4.998507694167E-02));
#194 = CARTESIAN_POINT('',(3.141761138897,4.999284240735E-02));
#195 = CARTESIAN_POINT('',(3.141762993724,4.999476438448E-02));
#196 = CARTESIAN_POINT('',(3.141765288067,4.999662873142E-02));
#197 = CARTESIAN_POINT('',(3.141767984835,4.999843562527E-02));
#198 = CARTESIAN_POINT('',(3.14177104245,5.000018548687E-02));
#199 = CARTESIAN_POINT('',(3.141774414843,5.000187898077E-02));
#200 = CARTESIAN_POINT('',(3.141778051456,5.000351701527E-02));
#201 = CARTESIAN_POINT('',(3.142333067619,5.02320772232E-02));
#202 = CARTESIAN_POINT('',(3.143425893133,5.038441017652E-02));
#203 = CARTESIAN_POINT('',(3.144678539858,5.050200489604E-02));
#204 = CARTESIAN_POINT('',(3.145845711489,5.061411211903E-02));
#205 = CARTESIAN_POINT('',(3.146818649346,5.073932802631E-02));
#206 = CARTESIAN_POINT('',(3.147625132376,5.088559424223E-02));
#207 = CARTESIAN_POINT('',(3.148429477148,5.105019783472E-02));
#208 = CARTESIAN_POINT('',(3.158956404375,5.266850194992E-02));
#209 = CARTESIAN_POINT('',(3.168382249519,5.411658834223E-02));
#210 = CARTESIAN_POINT('',(3.177807518777,5.556464559331E-02));
#211 = CARTESIAN_POINT('',(3.187232504007,5.701228609148E-02));
#212 = CARTESIAN_POINT('',(3.196657809271,5.845904746594E-02));
#213 = CARTESIAN_POINT('',(3.206083255861,5.990479360732E-02));
#214 = CARTESIAN_POINT('',(3.215508226552,6.134958875499E-02));
#215 = CARTESIAN_POINT('',(3.235145037274,6.43569310467E-02));
#216 = CARTESIAN_POINT('',(3.245356040632,6.591920200593E-02));
#217 = CARTESIAN_POINT('',(3.255566586365,6.747962920113E-02));
#218 = CARTESIAN_POINT('',(3.265776802945,6.903798478205E-02));
#219 = CARTESIAN_POINT('',(3.275986820076,7.059404137572E-02));
#220 = CARTESIAN_POINT('',(3.286196768689,7.21475720865E-02));
#221 = CARTESIAN_POINT('',(3.296406780947,7.369835049606E-02));
#222 = CARTESIAN_POINT('',(3.370003633275,8.485514631382E-02));
#223 = CARTESIAN_POINT('',(3.433396431913,9.434914310987E-02));
#224 = CARTESIAN_POINT('',(3.496829562481,0.103674452085));
#225 = CARTESIAN_POINT('',(3.560334640262,0.112777606895));
#226 = CARTESIAN_POINT('',(3.623938570423,0.121605116246));
#227 = CARTESIAN_POINT('',(3.687662186476,0.130103670643));
#228 = CARTESIAN_POINT('',(3.751519676244,0.13822080345));
#229 = CARTESIAN_POINT('',(3.925888469508,0.159159521985));
#230 = CARTESIAN_POINT('',(4.036697713601,0.171130647588));
#231 = CARTESIAN_POINT('',(4.147946637826,0.181554780319));
#232 = CARTESIAN_POINT('',(4.259603924685,0.190189870839));
#233 = CARTESIAN_POINT('',(4.371607450952,0.196831727183));
#234 = CARTESIAN_POINT('',(4.483865622789,0.201332318599));
#235 = CARTESIAN_POINT('',(4.596256391326,0.2036149272));
#236 = CARTESIAN_POINT('',(4.796955818325,0.203731148386));
#237 = CARTESIAN_POINT('',(4.885300992845,0.202411847155));
#238 = CARTESIAN_POINT('',(4.973587140327,0.19972077602));
#239 = CARTESIAN_POINT('',(5.061755452937,0.195685751491));
#240 = CARTESIAN_POINT('',(5.149756334961,0.190361807656));
#241 = CARTESIAN_POINT('',(5.237548627973,0.18382811823));
#242 = CARTESIAN_POINT('',(5.325099340445,0.176183755193));
#243 = CARTESIAN_POINT('',(5.501189905896,0.158750180823));
#244 = CARTESIAN_POINT('',(5.589726484984,0.148925334242));
#245 = CARTESIAN_POINT('',(5.677978074431,0.138186152389));
#246 = CARTESIAN_POINT('',(5.765953091503,0.126664937173));
#247 = CARTESIAN_POINT('',(5.853685039956,0.114500896916));
#248 = CARTESIAN_POINT('',(5.941232905966,0.101834820466));
#249 = CARTESIAN_POINT('',(6.028677318898,8.880664484147E-02));
#250 = CARTESIAN_POINT('',(6.13698875524,7.239300102463E-02));
#251 = CARTESIAN_POINT('',(6.157867824346,6.921632898814E-02));
#252 = CARTESIAN_POINT('',(6.178745967968,6.602856913034E-02));
#253 = CARTESIAN_POINT('',(6.199628661468,6.283324775023E-02));
#254 = CARTESIAN_POINT('',(6.220508625925,5.962925016869E-02));
#255 = CARTESIAN_POINT('',(6.241397635272,5.642245239504E-02));
#256 = CARTESIAN_POINT('',(6.262287450036,5.321143496635E-02));
#257 = CARTESIAN_POINT('',(6.283184402298,5.000013906925E-02));
#258 = ( GEOMETRIC_REPRESENTATION_CONTEXT(2) 
PARAMETRIC_REPRESENTATION_CONTEXT() REPRESENTATION_CONTEXT('2D SPACE',''
  ) );
#259 = PCURVE('',#260,#541);
#260 = B_SPLINE_SURFACE_WITH_KNOTS('',7,13,(
    (#261,#262,#263,#264,#265,#266,#267,#268,#269,#270,#271,#272,#273
      ,#274)
    ,(#275,#276,#277,#278,#279,#280,#281,#282,#283,#284,#285,#286,#287
      ,#288)
    ,(#289,#290,#291,#292,#293,#294,#295,#296,#297,#298,#299,#300,#301
      ,#302)
    ,(#303,#304,#305,#306,#307,#308,#309,#310,#311,#312,#313,#314,#315
      ,#316)
    ,(#317,#318,#319,#320,#321,#322,#323,#324,#325,#326,#327,#328,#329
      ,#330)
    ,(#331,#332,#333,#334,#335,#336,#337,#338,#339,#340,#341,#342,#343
      ,#344)
    ,(#345,#346,#347,#348,#349,#350,#351,#352,#353,#354,#355,#356,#357
      ,#358)
    ,(#359,#360,#361,#362,#363,#364,#365,#366,#367,#368,#369,#370,#371
      ,#372)
    ,(#373,#374,#375,#376,#377,#378,#379,#380,#381,#382,#383,#384,#385
      ,#386)
    ,(#387,#388,#389,#390,#391,#392,#393,#394,#395,#396,#397,#398,#399
      ,#400)
    ,(#401,#402,#403,#404,#405,#406,#407,#408,#409,#410,#411,#412,#413
      ,#414)
    ,(#415,#416,#417,#418,#419,#420,#421,#422,#423,#424,#425,#426,#427
      ,#428)
    ,(#429,#430,#431,#432,#433,#434,#435,#436,#437,#438,#439,#440,#441
      ,#442)
    ,(#443,#444,#445,#446,#447,#448,#449,#450,#451,#452,#453,#454,#455
      ,#456)
    ,(#457,#458,#459,#460,#461,#462,#463,#464,#465,#466,#467,#468,#469
      ,#470)
    ,(#471,#472,#473,#474,#475,#476,#477,#478,#479,#480,#481,#482,#483
      ,#484)
    ,(#485,#486,#487,#488,#489,#490,#491,#492,#493,#494,#495,#496,#497
      ,#498)
    ,(#499,#500,#501,#502,#503,#504,#505,#506,#507,#508,#509,#510,#511
      ,#512)
    ,(#513,#514,#515,#516,#517,#518,#519,#520,#521,#522,#523,#524,#525
      ,#526)
    ,(#527,#528,#529,#530,#531,#532,#533,#534,#535,#536,#537,#538,#539
      ,#540
    )),.UNSPECIFIED.,.F.,.T.,.F.,(8,6,6,8),(14,14),(-0.85497455189,0.,
    1.178097245096,2.033071796986),(1.570796326795,7.853981633974),
  .UNSPECIFIED.);
#261 = CARTESIAN_POINT('',(-0.789893489309,-0.277184596102,0.23));
#262 = CARTESIAN_POINT('',(-0.832434128657,-0.174482407636,0.23));
#263 = CARTESIAN_POINT('',(-0.874974784998,-7.178017814557E-02,
    0.171794321323));
#264 = CARTESIAN_POINT('',(-0.904792237407,2.055198564695E-04,
    5.53864292202E-02));
#265 = CARTESIAN_POINT('',(-0.909164842801,1.07619231001E-02,
    -9.835287138968E-02));
#266 = CARTESIAN_POINT('',(-0.880944514824,-5.736797543579E-02,
    -0.2475768858));
#267 = CARTESIAN_POINT('',(-0.824171578781,-0.194429967606,
    -0.341250995304));
#268 = CARTESIAN_POINT('',(-0.75561539981,-0.359939224662,
    -0.341250995319));
#269 = CARTESIAN_POINT('',(-0.698842463862,-0.497001216606,
    -0.247576885786));
#270 = CARTESIAN_POINT('',(-0.670622135749,-0.565131115469,
    -9.835287139908E-02));
#271 = CARTESIAN_POINT('',(-0.674994741245,-0.554574711978,
    5.538642922489E-02));
#272 = CARTESIAN_POINT('',(-0.704812193611,-0.48258901408,0.171794321321
    ));
#273 = CARTESIAN_POINT('',(-0.747352849962,-0.379886784565,0.23));
#274 = CARTESIAN_POINT('',(-0.789893489309,-0.277184596102,0.23));
#275 = CARTESIAN_POINT('',(-0.631914791447,-0.211747676882,0.23));
#276 = CARTESIAN_POINT('',(-0.661911465429,-0.103849607837,0.23));
#277 = CARTESIAN_POINT('',(-0.691908151392,4.048504320843E-03,
    0.171794321323));
#278 = CARTESIAN_POINT('',(-0.712933326678,7.967608271082E-02,
    5.538642922082E-02));
#279 = CARTESIAN_POINT('',(-0.716016581187,9.076655267291E-02,
    -9.835287139085E-02));
#280 = CARTESIAN_POINT('',(-0.696117586007,1.918984510043E-02,
    -0.247576885799));
#281 = CARTESIAN_POINT('',(-0.656085294991,-0.124806349157,
    -0.341250995305));
#282 = CARTESIAN_POINT('',(-0.607744287884,-0.298689004653,
    -0.341250995319));
#283 = CARTESIAN_POINT('',(-0.567711996934,-0.442685198745,
    -0.247576885787));
#284 = CARTESIAN_POINT('',(-0.54781300166,-0.514261906556,
    -9.83528713988E-02));
#285 = CARTESIAN_POINT('',(-0.55089625624,-0.503171436413,
    5.538642922477E-02));
#286 = CARTESIAN_POINT('',(-0.571921431496,-0.4275438581,0.171794321321)
  );
#287 = CARTESIAN_POINT('',(-0.601918117466,-0.319645745924,0.23));
#288 = CARTESIAN_POINT('',(-0.631914791447,-0.211747676882,0.23));
#289 = CARTESIAN_POINT('',(-0.488981683858,-0.152542845206,0.23));
#290 = CARTESIAN_POINT('',(-0.510615714263,-4.11808557752E-02,0.23));
#291 = CARTESIAN_POINT('',(-0.532249753308,7.018117816204E-02,
    0.171794321323));
#292 = CARTESIAN_POINT('',(-0.547413410509,0.148236676804,
    5.538642922135E-02));
#293 = CARTESIAN_POINT('',(-0.549637097767,0.159683191261,
    -9.835287139186E-02));
#294 = CARTESIAN_POINT('',(-0.535285657775,8.580861097414E-02,
    -0.247576885797));
#295 = CARTESIAN_POINT('',(-0.506413796788,-6.281038465191E-02,
    -0.341250995306));
#296 = CARTESIAN_POINT('',(-0.471549570916,-0.242275305792,
    -0.341250995318));
#297 = CARTESIAN_POINT('',(-0.44267770997,-0.390894301305,
    -0.247576885787));
#298 = CARTESIAN_POINT('',(-0.428326269918,-0.464768881755,
    -9.835287139852E-02));
#299 = CARTESIAN_POINT('',(-0.430549957222,-0.453322367174,
    5.538642922466E-02));
#300 = CARTESIAN_POINT('',(-0.445713614404,-0.375266868586,
    0.171794321321));
#301 = CARTESIAN_POINT('',(-0.467347653453,-0.263904834635,0.23));
#302 = CARTESIAN_POINT('',(-0.488981683858,-0.152542845206,0.23));
#303 = CARTESIAN_POINT('',(-0.361094166541,-9.957010107519E-02,0.23));
#304 = CARTESIAN_POINT('',(-0.378546875157,1.352384854805E-02,0.23));
#305 = CARTESIAN_POINT('',(-0.395999590745,0.126617843378,0.171794321322
    ));
#306 = CARTESIAN_POINT('',(-0.408232488898,0.205887302135,
    5.53864292218E-02));
#307 = CARTESIAN_POINT('',(-0.410026392542,0.217511838863,
    -9.835287139271E-02));
#308 = CARTESIAN_POINT('',(-0.39844873013,0.142488322185,-0.247576885796
    ));
#309 = CARTESIAN_POINT('',(-0.37515708417,-8.442074090788E-03,
    -0.341250995307));
#310 = CARTESIAN_POINT('',(-0.347031248906,-0.19069812808,
    -0.341250995317));
#311 = CARTESIAN_POINT('',(-0.323739602969,-0.341628524284,
    -0.247576885788));
#312 = CARTESIAN_POINT('',(-0.312161940524,-0.416652041066,
    -9.835287139826E-02));
#313 = CARTESIAN_POINT('',(-0.313955844192,-0.405027504259,
    5.538642922454E-02));
#314 = CARTESIAN_POINT('',(-0.326188742336,-0.325758045536,
    0.171794321321));
#315 = CARTESIAN_POINT('',(-0.343641457925,-0.212664050697,0.23));
#316 = CARTESIAN_POINT('',(-0.361094166541,-9.957010107519E-02,0.23));
#317 = CARTESIAN_POINT('',(-0.248252239497,-5.28294444892E-02,0.23));
#318 = CARTESIAN_POINT('',(-0.265704948113,6.026450513322E-02,0.23));
#319 = CARTESIAN_POINT('',(-0.283157663703,0.173358499969,0.171794321322
    ));
#320 = CARTESIAN_POINT('',(-0.295390561848,0.252627958705,
    5.538642922216E-02));
#321 = CARTESIAN_POINT('',(-0.297184465511,0.264252495481,
    -9.835287139339E-02));
#322 = CARTESIAN_POINT('',(-0.285606803071,0.189228978734,
    -0.247576885795));
#323 = CARTESIAN_POINT('',(-0.262315157139,3.829858252635E-02,
    -0.341250995308));
#324 = CARTESIAN_POINT('',(-0.234189321853,-0.143957471516,
    -0.341250995316));
#325 = CARTESIAN_POINT('',(-0.210897675931,-0.294887867684,
    -0.247576885788));
#326 = CARTESIAN_POINT('',(-0.199320013476,-0.369911384488,
    -9.8352871398E-02));
#327 = CARTESIAN_POINT('',(-0.201113917149,-0.358286847669,
    5.538642922443E-02));
#328 = CARTESIAN_POINT('',(-0.213346815291,-0.279017388952,
    0.171794321322));
#329 = CARTESIAN_POINT('',(-0.230799530881,-0.165923394111,0.23));
#330 = CARTESIAN_POINT('',(-0.248252239497,-5.282944448919E-02,0.23));
#331 = CARTESIAN_POINT('',(-0.150455902726,-1.2320875448E-02,0.23));
#332 = CARTESIAN_POINT('',(-0.172089933129,9.904111398032E-02,0.23));
#333 = CARTESIAN_POINT('',(-0.193723972182,0.210403147934,0.171794321322
    ));
#334 = CARTESIAN_POINT('',(-0.208887629356,0.288458646514,
    5.538642922244E-02));
#335 = CARTESIAN_POINT('',(-0.211111316674,0.299905161114,
    -9.835287139392E-02));
#336 = CARTESIAN_POINT('',(-0.196759876597,0.22603058062,-0.247576885795
    ));
#337 = CARTESIAN_POINT('',(-0.167888015694,7.741158519952E-02,
    -0.341250995308));
#338 = CARTESIAN_POINT('',(-0.133023789757,-0.1020533361,-0.341250995316
    ));
#339 = CARTESIAN_POINT('',(-0.104151928855,-0.250672331504,
    -0.247576885789));
#340 = CARTESIAN_POINT('',(-8.98004887759E-02,-0.324546912022,
    -9.835287139775E-02));
#341 = CARTESIAN_POINT('',(-9.202417609466E-02,-0.313100397403,
    5.538642922433E-02));
#342 = CARTESIAN_POINT('',(-0.10718783327,-0.235044898833,0.171794321322
    ));
#343 = CARTESIAN_POINT('',(-0.128821872321,-0.123682864876,0.23));
#344 = CARTESIAN_POINT('',(-0.150455902726,-1.2320875448E-02,0.23));
#345 = CARTESIAN_POINT('',(-6.770515622648E-02,2.19556060484E-02,0.23));
#346 = CARTESIAN_POINT('',(-9.770183020703E-02,0.129853675089,0.23));
#347 = CARTESIAN_POINT('',(-0.127698516182,0.237751787275,0.171794321322
    ));
#348 = CARTESIAN_POINT('',(-0.148723691424,0.313379365561,
    5.538642922263E-02));
#349 = CARTESIAN_POINT('',(-0.151806946032,0.324469835761,
    -9.835287139428E-02));
#350 = CARTESIAN_POINT('',(-0.131907950709,0.252893127844,
    -0.247576885794));
#351 = CARTESIAN_POINT('',(-9.187565983526E-02,0.108896933929,
    -0.341250995309));
#352 = CARTESIAN_POINT('',(-4.353465261825E-02,-6.498572183293E-02,
    -0.341250995315));
#353 = CARTESIAN_POINT('',(-3.502361742875E-03,-0.208981915745,
    -0.247576885789));
#354 = CARTESIAN_POINT('',(1.639663357742E-02,-0.280558623667,
    -9.83528713975E-02));
#355 = CARTESIAN_POINT('',(1.331337897249E-02,-0.269468153463,
    5.538642922423E-02));
#356 = CARTESIAN_POINT('',(-7.711796271713E-03,-0.193840575179,
    0.171794321322));
#357 = CARTESIAN_POINT('',(-3.770848224582E-02,-8.59424629924E-02,0.23)
  );
#358 = CARTESIAN_POINT('',(-6.770515622648E-02,2.19556060484E-02,0.23));
#359 = CARTESIAN_POINT('',(9.329313703306E-02,8.864328263542E-02,0.23));
#360 = CARTESIAN_POINT('',(3.346775978901E-02,0.184185898236,0.23));
#361 = CARTESIAN_POINT('',(-2.635764138006E-02,0.279728552045,
    0.171794321322));
#362 = CARTESIAN_POINT('',(-6.829025834364E-02,0.346695984398,
    5.538642922289E-02));
#363 = CARTESIAN_POINT('',(-7.443950245314E-02,0.356516480203,
    -9.835287139475E-02));
#364 = CARTESIAN_POINT('',(-3.475293906566E-02,0.293136051281,
    -0.247576885794));
#365 = CARTESIAN_POINT('',(4.508747601135E-02,0.165628922386,
    -0.34125099531));
#366 = CARTESIAN_POINT('',(0.141498798055,1.165764288659E-02,
    -0.341250995314));
#367 = CARTESIAN_POINT('',(0.22133921313,-0.115849486014,-0.24757688579)
  );
#368 = CARTESIAN_POINT('',(0.261025776521,-0.179229914929,
    -9.835287139694E-02));
#369 = CARTESIAN_POINT('',(0.254876532408,-0.16940941913,
    5.538642922399E-02));
#370 = CARTESIAN_POINT('',(0.212943915447,-0.102441986773,0.171794321322
    ));
#371 = CARTESIAN_POINT('',(0.153118514277,-6.899332964905E-03,0.23));
#372 = CARTESIAN_POINT('',(9.329313703306E-02,8.864328263542E-02,0.23));
#373 = CARTESIAN_POINT('',(0.178998603038,0.145604689517,0.23));
#374 = CARTESIAN_POINT('',(0.103294281602,0.230593870863,0.23));
#375 = CARTESIAN_POINT('',(2.758992989645E-02,0.315583086184,
    0.171794321322));
#376 = CARTESIAN_POINT('',(-2.547250715781E-02,0.375153438321,
    5.538642922319E-02));
#377 = CARTESIAN_POINT('',(-3.325389311308E-02,0.383889182966,
    -9.835287139545E-02));
#378 = CARTESIAN_POINT('',(1.696633926069E-02,0.32750962162,
    -0.247576885792));
#379 = CARTESIAN_POINT('',(0.117998120941,0.214086659053,-0.341250995311
    ));
#380 = CARTESIAN_POINT('',(0.239999085132,7.712271997687E-02,
    -0.341250995313));
#381 = CARTESIAN_POINT('',(0.34103086682,-3.630024257598E-02,
    -0.247576885791));
#382 = CARTESIAN_POINT('',(0.391251099182,-9.267980394188E-02,
    -9.835287139616E-02));
#383 = CARTESIAN_POINT('',(0.383469713237,-8.394405927978E-02,
    5.538642922352E-02));
#384 = CARTESIAN_POINT('',(0.330407276177,-2.437370715268E-02,
    0.171794321322));
#385 = CARTESIAN_POINT('',(0.254702924474,6.061550817256E-02,0.23));
#386 = CARTESIAN_POINT('',(0.178998603038,0.145604689517,0.23));
#387 = CARTESIAN_POINT('',(0.252800895796,0.219095984662,0.23));
#388 = CARTESIAN_POINT('',(0.163422971702,0.290469182934,0.23));
#389 = CARTESIAN_POINT('',(7.404501186031E-02,0.36184240976,
    0.171794321322));
#390 = CARTESIAN_POINT('',(1.139851587378E-02,0.411869089422,
    5.538642922218E-02));
#391 = CARTESIAN_POINT('',(2.211667414651E-03,0.419205294265,
    -9.835287139331E-02));
#392 = CARTESIAN_POINT('',(6.150260407235E-02,0.371858213597,
    -0.247576885796));
#393 = CARTESIAN_POINT('',(0.180782596666,0.276606565684,-0.341250995307
    ));
#394 = CARTESIAN_POINT('',(0.324819194929,0.161585403647,-0.341250995317
    ));
#395 = CARTESIAN_POINT('',(0.444099187511,6.633375571426E-02,
    -0.247576885788));
#396 = CARTESIAN_POINT('',(0.503390124186,1.898667507375E-02,
    -9.835287139846E-02));
#397 = CARTESIAN_POINT('',(0.494203275711,2.63228798937E-02,
    5.538642922476E-02));
#398 = CARTESIAN_POINT('',(0.431556779734,7.634955956893E-02,
    0.171794321321));
#399 = CARTESIAN_POINT('',(0.342178819889,0.14772278639,0.23));
#400 = CARTESIAN_POINT('',(0.252800895796,0.219095984662,0.23));
#401 = CARTESIAN_POINT('',(0.31090833583,0.306059914271,0.23));
#402 = CARTESIAN_POINT('',(0.210764648004,0.361321008508,0.23));
#403 = CARTESIAN_POINT('',(0.110620920135,0.416582124832,0.171794321322)
  );
#404 = CARTESIAN_POINT('',(4.042851856129E-02,0.455315558808,
    5.538642922218E-02));
#405 = CARTESIAN_POINT('',(3.013509445651E-02,0.460995655944,
    -9.83528713933E-02));
#406 = CARTESIAN_POINT('',(9.65677521967E-02,0.424336916571,
    -0.247576885796));
#407 = CARTESIAN_POINT('',(0.230215277335,0.350587800165,-0.341250995307
    ));
#408 = CARTESIAN_POINT('',(0.391601394322,0.261532028373,-0.341250995317
    ));
#409 = CARTESIAN_POINT('',(0.525248919468,0.187782911981,-0.247576885788
    ));
#410 = CARTESIAN_POINT('',(0.591681577196,0.151124172588,
    -9.835287139846E-02));
#411 = CARTESIAN_POINT('',(0.581388153103,0.156804269741,
    5.538642922476E-02));
#412 = CARTESIAN_POINT('',(0.511195751522,0.195537703707,0.171794321321)
  );
#413 = CARTESIAN_POINT('',(0.411052023656,0.250798820034,0.23));
#414 = CARTESIAN_POINT('',(0.31090833583,0.306059914271,0.23));
#415 = CARTESIAN_POINT('',(0.350562524523,0.402368243078,0.23));
#416 = CARTESIAN_POINT('',(0.243071969823,0.439785964543,0.23));
#417 = CARTESIAN_POINT('',(0.135581372138,0.477203700977,0.171794321322)
  );
#418 = CARTESIAN_POINT('',(6.023942754201E-02,0.503430413678,
    5.538642922319E-02));
#419 = CARTESIAN_POINT('',(4.919084431388E-02,0.507276452187,
    -9.835287139546E-02));
#420 = CARTESIAN_POINT('',(0.120497218096,0.482454531369,-0.247576885792
    ));
#421 = CARTESIAN_POINT('',(0.263949560583,0.43251842485,-0.341250995311)
  );
#422 = CARTESIAN_POINT('',(0.437175488463,0.372218061308,-0.341250995313
    ));
#423 = CARTESIAN_POINT('',(0.580627830948,0.322281954781,-0.247576885791
    ));
#424 = CARTESIAN_POINT('',(0.651934204733,0.297460033974,
    -9.835287139616E-02));
#425 = CARTESIAN_POINT('',(0.640885621503,0.301306072474,
    5.538642922352E-02));
#426 = CARTESIAN_POINT('',(0.565543676909,0.327532785179,0.171794321322)
  );
#427 = CARTESIAN_POINT('',(0.458053079223,0.364950521612,0.23));
#428 = CARTESIAN_POINT('',(0.350562524523,0.402368243078,0.23));
#429 = CARTESIAN_POINT('',(0.370389940581,0.503347955641,0.23));
#430 = CARTESIAN_POINT('',(0.259225892839,0.522056821127,0.23));
#431 = CARTESIAN_POINT('',(0.148061800643,0.540765694092,0.171794321322)
  );
#432 = CARTESIAN_POINT('',(7.014504275113E-02,0.553879053787,
    5.538642922289E-02));
#433 = CARTESIAN_POINT('',(5.871887385279E-02,0.555802073502,
    -9.835287139475E-02));
#434 = CARTESIAN_POINT('',(0.132462145164,0.543391109986,-0.247576885794
    ));
#435 = CARTESIAN_POINT('',(0.280816975918,0.518423050325,-0.34125099531)
  );
#436 = CARTESIAN_POINT('',(0.459962905245,0.488272860957,-0.341250995314
    ));
#437 = CARTESIAN_POINT('',(0.608317735997,0.463304801298,-0.24757688579)
  );
#438 = CARTESIAN_POINT('',(0.68206100731,0.45089383778,
    -9.835287139694E-02));
#439 = CARTESIAN_POINT('',(0.67063483841,0.452816857496,
    5.538642922399E-02));
#440 = CARTESIAN_POINT('',(0.592718080519,0.46593021719,0.171794321322)
  );
#441 = CARTESIAN_POINT('',(0.481553988323,0.484639090155,0.23));
#442 = CARTESIAN_POINT('',(0.370389940581,0.503347955641,0.23));
#443 = CARTESIAN_POINT('',(0.370389940581,0.677611252526,0.23));
#444 = CARTESIAN_POINT('',(0.259225892839,0.664033762254,0.23));
#445 = CARTESIAN_POINT('',(0.148061800643,0.650456266553,0.171794321322)
  );
#446 = CARTESIAN_POINT('',(7.014504275047E-02,0.640939574385,
    5.538642922263E-02));
#447 = CARTESIAN_POINT('',(5.871887385406E-02,0.639543991011,
    -9.835287139428E-02));
#448 = CARTESIAN_POINT('',(0.132462145162,0.648550936772,-0.247576885794
    ));
#449 = CARTESIAN_POINT('',(0.280816975921,0.666670880338,-0.341250995309
    ));
#450 = CARTESIAN_POINT('',(0.459962905241,0.688551624714,-0.341250995315
    ));
#451 = CARTESIAN_POINT('',(0.608317736001,0.70667156828,-0.247576885789)
  );
#452 = CARTESIAN_POINT('',(0.682061007307,0.715678514041,
    -9.83528713975E-02));
#453 = CARTESIAN_POINT('',(0.670634838412,0.714282930666,
    5.538642922423E-02));
#454 = CARTESIAN_POINT('',(0.592718080519,0.704766238499,0.171794321322)
  );
#455 = CARTESIAN_POINT('',(0.481553988323,0.691188742798,0.23));
#456 = CARTESIAN_POINT('',(0.370389940581,0.677611252526,0.23));
#457 = CARTESIAN_POINT('',(0.370389940581,0.767180015105,0.23));
#458 = CARTESIAN_POINT('',(0.259225892839,0.744550864651,0.23));
#459 = CARTESIAN_POINT('',(0.148061800643,0.72192170515,0.171794321322)
  );
#460 = CARTESIAN_POINT('',(7.014504274998E-02,0.706060551536,
    5.538642922244E-02));
#461 = CARTESIAN_POINT('',(5.871887385504E-02,0.703734579249,
    -9.835287139392E-02));
#462 = CARTESIAN_POINT('',(0.13246214516,0.718746155511,-0.247576885795)
  );
#463 = CARTESIAN_POINT('',(0.280816975922,0.748946061463,-0.341250995308
    ));
#464 = CARTESIAN_POINT('',(0.459962905239,0.785413968747,-0.341250995316
    ));
#465 = CARTESIAN_POINT('',(0.608317736002,0.815613874698,-0.247576885789
    ));
#466 = CARTESIAN_POINT('',(0.682061007306,0.830625450961,
    -9.835287139775E-02));
#467 = CARTESIAN_POINT('',(0.670634838412,0.828299478673,
    5.538642922433E-02));
#468 = CARTESIAN_POINT('',(0.592718080519,0.81243832506,0.171794321322)
  );
#469 = CARTESIAN_POINT('',(0.481553988323,0.789809165559,0.23));
#470 = CARTESIAN_POINT('',(0.370389940581,0.767180015105,0.23));
#471 = CARTESIAN_POINT('',(0.370389940581,0.873034007244,0.23));
#472 = CARTESIAN_POINT('',(0.259225892838,0.845879026699,0.23));
#473 = CARTESIAN_POINT('',(0.148061800643,0.818724035297,0.171794321322)
  );
#474 = CARTESIAN_POINT('',(7.014504274927E-02,0.799690650961,
    5.538642922216E-02));
#475 = CARTESIAN_POINT('',(5.871887385645E-02,0.796899484217,
    -9.83528713934E-02));
#476 = CARTESIAN_POINT('',(0.132462145158,0.81491337573,-0.247576885795)
  );
#477 = CARTESIAN_POINT('',(0.280816975924,0.851153262874,-0.341250995308
    ));
#478 = CARTESIAN_POINT('',(0.459962905237,0.894914751613,-0.341250995316
    ));
#479 = CARTESIAN_POINT('',(0.608317736004,0.931154638756,-0.247576885788
    ));
#480 = CARTESIAN_POINT('',(0.682061007305,0.949168530271,
    -9.8352871398E-02));
#481 = CARTESIAN_POINT('',(0.670634838413,0.946377363526,
    5.538642922443E-02));
#482 = CARTESIAN_POINT('',(0.592718080518,0.92734397919,0.171794321322)
  );
#483 = CARTESIAN_POINT('',(0.481553988323,0.900188987788,0.23));
#484 = CARTESIAN_POINT('',(0.370389940581,0.873034007244,0.23));
#485 = CARTESIAN_POINT('',(0.370389940581,0.995173228942,0.23));
#486 = CARTESIAN_POINT('',(0.259225892838,0.968018248398,0.23));
#487 = CARTESIAN_POINT('',(0.148061800644,0.940863256996,0.171794321322)
  );
#488 = CARTESIAN_POINT('',(7.014504274835E-02,0.921829872659,
    5.53864292218E-02));
#489 = CARTESIAN_POINT('',(5.871887385831E-02,0.919038705916,
    -9.835287139271E-02));
#490 = CARTESIAN_POINT('',(0.132462145156,0.937052597429,-0.247576885796
    ));
#491 = CARTESIAN_POINT('',(0.280816975927,0.973292484573,-0.341250995307
    ));
#492 = CARTESIAN_POINT('',(0.459962905235,1.017053973312,-0.341250995317
    ));
#493 = CARTESIAN_POINT('',(0.608317736006,1.053293860455,-0.247576885788
    ));
#494 = CARTESIAN_POINT('',(0.682061007304,1.071307751969,
    -9.835287139826E-02));
#495 = CARTESIAN_POINT('',(0.670634838413,1.068516585225,
    5.538642922454E-02));
#496 = CARTESIAN_POINT('',(0.592718080518,1.049483200888,0.171794321321)
  );
#497 = CARTESIAN_POINT('',(0.481553988323,1.022328209487,0.23));
#498 = CARTESIAN_POINT('',(0.370389940581,0.995173228942,0.23));
#499 = CARTESIAN_POINT('',(0.370389940581,1.1335976802,0.23));
#500 = CARTESIAN_POINT('',(0.259225892838,1.110968529747,0.23));
#501 = CARTESIAN_POINT('',(0.148061800644,1.088339370245,0.171794321323)
  );
#502 = CARTESIAN_POINT('',(7.014504274721E-02,1.072478216632,
    5.538642922135E-02));
#503 = CARTESIAN_POINT('',(5.87188738606E-02,1.070152244344,
    -9.835287139187E-02));
#504 = CARTESIAN_POINT('',(0.132462145153,1.085163820607,-0.247576885797
    ));
#505 = CARTESIAN_POINT('',(0.28081697593,1.115363726559,-0.341250995306)
  );
#506 = CARTESIAN_POINT('',(0.459962905233,1.151831633843,-0.341250995318
    ));
#507 = CARTESIAN_POINT('',(0.608317736008,1.182031539794,-0.247576885787
    ));
#508 = CARTESIAN_POINT('',(0.682061007303,1.197043116057,
    -9.835287139853E-02));
#509 = CARTESIAN_POINT('',(0.670634838414,1.194717143769,
    5.538642922466E-02));
#510 = CARTESIAN_POINT('',(0.592718080518,1.178855990156,0.171794321321)
  );
#511 = CARTESIAN_POINT('',(0.481553988324,1.156226830654,0.23));
#512 = CARTESIAN_POINT('',(0.370389940581,1.1335976802,0.23));
#513 = CARTESIAN_POINT('',(0.370389940581,1.288307361019,0.23));
#514 = CARTESIAN_POINT('',(0.259225892838,1.274729870746,0.23));
#515 = CARTESIAN_POINT('',(0.148061800644,1.261152375045,0.171794321323)
  );
#516 = CARTESIAN_POINT('',(7.014504274586E-02,1.251635682878,
    5.538642922082E-02));
#517 = CARTESIAN_POINT('',(5.871887386334E-02,1.250240099504,
    -9.835287139086E-02));
#518 = CARTESIAN_POINT('',(0.132462145149,1.259247045264,-0.247576885799
    ));
#519 = CARTESIAN_POINT('',(0.280816975933,1.277366988831,-0.341250995305
    ));
#520 = CARTESIAN_POINT('',(0.45996290523,1.299247733206,-0.341250995319)
  );
#521 = CARTESIAN_POINT('',(0.608317736009,1.317367676773,-0.247576885787
    ));
#522 = CARTESIAN_POINT('',(0.682061007302,1.326374622534,
    -9.83528713988E-02));
#523 = CARTESIAN_POINT('',(0.670634838415,1.324979039159,
    5.538642922477E-02));
#524 = CARTESIAN_POINT('',(0.592718080518,1.315462346992,0.171794321321)
  );
#525 = CARTESIAN_POINT('',(0.481553988324,1.301884851291,0.23));
#526 = CARTESIAN_POINT('',(0.370389940581,1.288307361019,0.23));
#527 = CARTESIAN_POINT('',(0.370389940581,1.459302271397,0.23));
#528 = CARTESIAN_POINT('',(0.259225892838,1.459302271397,0.23));
#529 = CARTESIAN_POINT('',(0.148061800645,1.459302271396,0.171794321323)
  );
#530 = CARTESIAN_POINT('',(7.014504274429E-02,1.459302271398,
    5.53864292202E-02));
#531 = CARTESIAN_POINT('',(5.871887386651E-02,1.459302271393,
    -9.835287138969E-02));
#532 = CARTESIAN_POINT('',(0.132462145145,1.459302271401,-0.2475768858)
  );
#533 = CARTESIAN_POINT('',(0.280816975937,1.45930227139,-0.341250995304)
  );
#534 = CARTESIAN_POINT('',(0.459962905227,1.459302271403,-0.341250995319
    ));
#535 = CARTESIAN_POINT('',(0.608317736012,1.459302271392,-0.247576885786
    ));
#536 = CARTESIAN_POINT('',(0.682061007301,1.459302271399,
    -9.835287139908E-02));
#537 = CARTESIAN_POINT('',(0.670634838415,1.459302271395,
    5.538642922489E-02));
#538 = CARTESIAN_POINT('',(0.592718080517,1.459302271397,0.171794321321)
  );
#539 = CARTESIAN_POINT('',(0.481553988324,1.459302271396,0.23));
#540 = CARTESIAN_POINT('',(0.370389940581,1.459302271397,0.23));
#541 = DEFINITIONAL_REPRESENTATION('',(#542),#643);
#542 = B_SPLINE_CURVE_WITH_KNOTS('',8,(#543,#544,#545,#546,#547,#548,
    #549,#550,#551,#552,#553,#554,#555,#556,#557,#558,#559,#560,#561,
    #562,#563,#564,#565,#566,#567,#568,#569,#570,#571,#572,#573,#574,
    #575,#576,#577,#578,#579,#580,#581,#582,#583,#584,#585,#586,#587,
    #588,#589,#590,#591,#592,#593,#594,#595,#596,#597,#598,#599,#600,
    #601,#602,#603,#604,#605,#606,#607,#608,#609,#610,#611,#612,#613,
    #614,#615,#616,#617,#618,#619,#620,#621,#622,#623,#624,#625,#626,
    #627,#628,#629,#630,#631,#632,#633,#634,#635,#636,#637,#638,#639,
    #640,#641,#642),.UNSPECIFIED.,.F.,.F.,(9,7,7,7,7,7,7,7,7,7,7,7,7,7,9
    ),(0.,3.77916030556E-04,9.592526901234E-04,1.453555097727E-03,
    1.563674224462E-03,1.621605753184E-03,1.641425888714E-03,
    4.482006547163E-03,2.875016573779E-02,5.504306745295E-02,
    0.218273685688,0.499773031103,0.721072567214,0.946229641282,1.),
  .UNSPECIFIED.);
#543 = CARTESIAN_POINT('',(-7.511799198809E-02,4.858160961953));
#544 = CARTESIAN_POINT('',(-7.266769748811E-02,4.852899420622));
#545 = CARTESIAN_POINT('',(-7.020079872569E-02,4.847641713122));
#546 = CARTESIAN_POINT('',(-6.771693627356E-02,4.842387935753));
#547 = CARTESIAN_POINT('',(-6.521577118351E-02,4.837138176909));
#548 = CARTESIAN_POINT('',(-6.269698498637E-02,4.83189251708));
#549 = CARTESIAN_POINT('',(-6.016027969198E-02,4.82665102885));
#550 = CARTESIAN_POINT('',(-5.760537778928E-02,4.821413776901));
#551 = CARTESIAN_POINT('',(-5.107350819986E-02,4.808131117551));
#552 = CARTESIAN_POINT('',(-4.711497237002E-02,4.800180659568));
#553 = CARTESIAN_POINT('',(-4.315641855785E-02,4.792328397069));
#554 = CARTESIAN_POINT('',(-3.919785020666E-02,4.784573331365));
#555 = CARTESIAN_POINT('',(-3.523927040193E-02,4.776914512065));
#556 = CARTESIAN_POINT('',(-3.128068187129E-02,4.769351037077));
#557 = CARTESIAN_POINT('',(-2.732208698451E-02,4.761882052608));
#558 = CARTESIAN_POINT('',(-1.99975463521E-02,4.748235639492));
#559 = CARTESIAN_POINT('',(-1.547757886637E-02,4.739880032609));
#560 = CARTESIAN_POINT('',(-1.077681208911E-02,4.731346480884));
#561 = CARTESIAN_POINT('',(-6.617422965134E-03,4.723958133085));
#562 = CARTESIAN_POINT('',(-3.492812186453E-03,4.718491135176));
#563 = CARTESIAN_POINT('',(-1.598240354552E-03,4.715181242019));
#564 = CARTESIAN_POINT('',(-7.748242325203E-04,4.713734613948));
#565 = CARTESIAN_POINT('',(-5.266816990217E-04,4.713297048443));
#566 = CARTESIAN_POINT('',(-4.449171429214E-04,4.713153775042));
#567 = CARTESIAN_POINT('',(-3.521905153124E-04,4.712989874651));
#568 = CARTESIAN_POINT('',(-2.668950952291E-04,4.712836483397));
#569 = CARTESIAN_POINT('',(-2.002238667224E-04,4.712712946862));
#570 = CARTESIAN_POINT('',(-1.561695188596E-04,4.71262682009));
#571 = CARTESIAN_POINT('',(-1.315244457245E-04,4.712573867579));
#572 = CARTESIAN_POINT('',(-1.076509007709E-04,4.712519227351));
#573 = CARTESIAN_POINT('',(-9.935764006316E-05,4.712499616118));
#574 = CARTESIAN_POINT('',(-9.128007899024E-05,4.712479023726));
#575 = CARTESIAN_POINT('',(-8.37131656884E-05,4.712457352833));
#576 = CARTESIAN_POINT('',(-7.69676817339E-05,4.712434614617));
#577 = CARTESIAN_POINT('',(-7.137024214296E-05,4.712410928779));
#578 = CARTESIAN_POINT('',(-6.726329537179E-05,4.71238652354));
#579 = CARTESIAN_POINT('',(-6.423253406906E-05,4.712353254951));
#580 = CARTESIAN_POINT('',(-6.366383494396E-05,4.712344824812));
#581 = CARTESIAN_POINT('',(-6.328752681833E-05,4.71233645797));
#582 = CARTESIAN_POINT('',(-6.309036483502E-05,4.712328167908));
#583 = CARTESIAN_POINT('',(-6.305735840265E-05,4.712319968847));
#584 = CARTESIAN_POINT('',(-6.317177119562E-05,4.712311875748));
#585 = CARTESIAN_POINT('',(-6.341512115413E-05,4.712303904308));
#586 = CARTESIAN_POINT('',(-1.142235924476E-04,4.711173412731));
#587 = CARTESIAN_POINT('',(-4.042508729355E-04,4.710143303931));
#588 = CARTESIAN_POINT('',(-7.731188374409E-04,4.709191572476));
#589 = CARTESIAN_POINT('',(-1.115274007974E-03,4.708294592772));
#590 = CARTESIAN_POINT('',(-1.380339613062E-03,4.707419285721));
#591 = CARTESIAN_POINT('',(-1.573115587748E-03,4.70652311872));
#592 = CARTESIAN_POINT('',(-1.753578573594E-03,4.70555410566));
#593 = CARTESIAN_POINT('',(-4.457249971686E-03,4.695024906924));
#594 = CARTESIAN_POINT('',(-6.887845118656E-03,4.685600340037));
#595 = CARTESIAN_POINT('',(-9.326682163421E-03,4.676174825497));
#596 = CARTESIAN_POINT('',(-1.177340969413E-02,4.666749020926));
#597 = CARTESIAN_POINT('',(-1.422782295567E-02,4.657323765263));
#598 = CARTESIAN_POINT('',(-1.668922226872E-02,4.647898887223));
#599 = CARTESIAN_POINT('',(-1.915661699537E-02,4.638473579273));
#600 = CARTESIAN_POINT('',(-2.430927377987E-02,4.618836727619));
#601 = CARTESIAN_POINT('',(-2.69952511598E-02,4.608625708142));
#602 = CARTESIAN_POINT('',(-2.968695471463E-02,4.598415149829));
#603 = CARTESIAN_POINT('',(-3.238362670761E-02,4.588204922952));
#604 = CARTESIAN_POINT('',(-3.508450414182E-02,4.577994896923));
#605 = CARTESIAN_POINT('',(-3.778881876013E-02,4.567784940299));
#606 = CARTESIAN_POINT('',(-4.049579704524E-02,4.557574920779));
#607 = CARTESIAN_POINT('',(-6.002172421171E-02,4.483978023155));
#608 = CARTESIAN_POINT('',(-7.691111217684E-02,4.420585211343));
#609 = CARTESIAN_POINT('',(-9.368802916678E-02,4.357152068688));
#610 = CARTESIAN_POINT('',(-0.110163522676,4.293646979839));
#611 = CARTESIAN_POINT('',(-0.126161940532,4.23004304392));
#612 = CARTESIAN_POINT('',(-0.141531161737,4.166319426522));
#613 = CARTESIAN_POINT('',(-0.156145600277,4.102461934952));
#614 = CARTESIAN_POINT('',(-0.193625548321,3.92809314417));
#615 = CARTESIAN_POINT('',(-0.214801698308,3.817283907097));
#616 = CARTESIAN_POINT('',(-0.232889409768,3.706034993223));
#617 = CARTESIAN_POINT('',(-0.247573283006,3.594377717493));
#618 = CARTESIAN_POINT('',(-0.258696218876,3.482374199345));
#619 = CARTESIAN_POINT('',(-0.266179392129,3.370116029711));
#620 = CARTESIAN_POINT('',(-0.269972983104,3.257725257599));
#621 = CARTESIAN_POINT('',(-0.270166150839,3.057025818455));
#622 = CARTESIAN_POINT('',(-0.267973250307,2.968680636625));
#623 = CARTESIAN_POINT('',(-0.263501545479,2.88039448096));
#624 = CARTESIAN_POINT('',(-0.256766715224,2.792226161586));
#625 = CARTESIAN_POINT('',(-0.247799579478,2.704225276969));
#626 = CARTESIAN_POINT('',(-0.236653943419,2.616432987615));
#627 = CARTESIAN_POINT('',(-0.223423707433,2.52888228495));
#628 = CARTESIAN_POINT('',(-0.192850616338,2.352791743249));
#629 = CARTESIAN_POINT('',(-0.175438757498,2.264255178093));
#630 = CARTESIAN_POINT('',(-0.156200347305,2.176003601178));
#631 = CARTESIAN_POINT('',(-0.135364639524,2.088028585479));
#632 = CARTESIAN_POINT('',(-0.113249030701,2.000296618566));
#633 = CARTESIAN_POINT('',(-9.027598227045E-02,1.912748700854));
#634 = CARTESIAN_POINT('',(-6.694821764281E-02,1.825304202769));
#635 = CARTESIAN_POINT('',(-3.820887826243E-02,1.716992733118));
#636 = CARTESIAN_POINT('',(-3.267592652442E-02,1.696114063837));
#637 = CARTESIAN_POINT('',(-2.71576869953E-02,1.675233907009));
#638 = CARTESIAN_POINT('',(-2.16582107185E-02,1.654355841966));
#639 = CARTESIAN_POINT('',(-1.618893453869E-02,1.633469660077));
#640 = CARTESIAN_POINT('',(-1.074993006698E-02,1.612585916912));
#641 = CARTESIAN_POINT('',(-5.352786139655E-03,1.591693499345));
#642 = CARTESIAN_POINT('',(-2.317682520903E-07,1.570797231701));
#643 = ( GEOMETRIC_REPRESENTATION_CONTEXT(2) 
PARAMETRIC_REPRESENTATION_CONTEXT() REPRESENTATION_CONTEXT('2D SPACE',''
  ) );
#644 = ORIENTED_EDGE('',*,*,#645,.T.);
#645 = EDGE_CURVE('',#51,#24,#646,.T.);
#646 = SURFACE_CURVE('',#647,(#658,#672),.PCURVE_S1.);
#647 = B_SPLINE_CURVE_WITH_KNOTS('',5,(#648,#649,#650,#651,#652,#653,
    #654,#655,#656,#657),.UNSPECIFIED.,.F.,.F.,(6,4,6),(0.,
    0.111888840396,1.),.UNSPECIFIED.);
#648 = CARTESIAN_POINT('',(7.820513208397E-02,-5.551115123126E-17,
    0.216295994683));
#649 = CARTESIAN_POINT('',(7.651812648997E-02,1.033950187558E-03,
    0.216905957862));
#650 = CARTESIAN_POINT('',(7.482585724325E-02,2.073357338403E-03,
    0.217499229365));
#651 = CARTESIAN_POINT('',(7.312810793617E-02,3.118376630714E-03,
    0.218075902842));
#652 = CARTESIAN_POINT('',(7.142506179883E-02,4.168937988233E-03,
    0.218635934991));
#653 = CARTESIAN_POINT('',(5.616205528485E-02,1.36051613712E-02,
    0.223490847749));
#654 = CARTESIAN_POINT('',(4.230081613356E-02,2.232125782964E-02,
    0.226745942869));
#655 = CARTESIAN_POINT('',(2.824522543608E-02,3.132766027531E-02,
    0.228918220943));
#656 = CARTESIAN_POINT('',(1.41084767395E-02,4.057298211281E-02,
    0.22999999538));
#657 = CARTESIAN_POINT('',(3.441853096975E-08,5.000001425662E-02,0.23));
#658 = PCURVE('',#32,#659);
#659 = DEFINITIONAL_REPRESENTATION('',(#660),#671);
#660 = B_SPLINE_CURVE_WITH_KNOTS('',5,(#661,#662,#663,#664,#665,#666,
    #667,#668,#669,#670),.UNSPECIFIED.,.F.,.F.,(6,4,6),(0.,
    0.111888840396,1.),.UNSPECIFIED.);
#661 = CARTESIAN_POINT('',(0.346940624559,0.));
#662 = CARTESIAN_POINT('',(0.339141100853,1.033950187558E-03));
#663 = CARTESIAN_POINT('',(0.331344731655,2.073357338403E-03));
#664 = CARTESIAN_POINT('',(0.323549505047,3.118376630714E-03));
#665 = CARTESIAN_POINT('',(0.315755248993,4.168937988233E-03));
#666 = CARTESIAN_POINT('',(0.246118119622,1.36051613712E-02));
#667 = CARTESIAN_POINT('',(0.184397331538,2.232125782964E-02));
#668 = CARTESIAN_POINT('',(0.122805378402,3.132766027531E-02));
#669 = CARTESIAN_POINT('',(6.134119088948E-02,4.057298211281E-02));
#670 = CARTESIAN_POINT('',(1.49645786825E-07,5.000001425662E-02));
#671 = ( GEOMETRIC_REPRESENTATION_CONTEXT(2) 
PARAMETRIC_REPRESENTATION_CONTEXT() REPRESENTATION_CONTEXT('2D SPACE',''
  ) );
#672 = PCURVE('',#260,#673);
#673 = DEFINITIONAL_REPRESENTATION('',(#674),#685);
#674 = B_SPLINE_CURVE_WITH_KNOTS('',5,(#675,#676,#677,#678,#679,#680,
    #681,#682,#683,#684),.UNSPECIFIED.,.F.,.F.,(6,4,6),(0.,
    0.111888840396,1.),.UNSPECIFIED.);
#675 = CARTESIAN_POINT('',(7.840146158138E-02,7.507039182724));
#676 = CARTESIAN_POINT('',(7.687690473035E-02,7.514838675573));
#677 = CARTESIAN_POINT('',(7.533987275162E-02,7.522637599438));
#678 = CARTESIAN_POINT('',(7.378949592869E-02,7.530433594768));
#679 = CARTESIAN_POINT('',(7.222569946885E-02,7.538226442704));
#680 = CARTESIAN_POINT('',(5.813585851487E-02,7.607863614281));
#681 = CARTESIAN_POINT('',(4.480460812586E-02,7.66958431595));
#682 = CARTESIAN_POINT('',(3.065899549831E-02,7.73117673932));
#683 = CARTESIAN_POINT('',(1.571162458232E-02,7.792640300049));
#684 = CARTESIAN_POINT('',(6.209058383833E-08,7.853981633974));
#685 = ( GEOMETRIC_REPRESENTATION_CONTEXT(2) 
PARAMETRIC_REPRESENTATION_CONTEXT() REPRESENTATION_CONTEXT('2D SPACE',''
  ) );
#686 = ORIENTED_EDGE('',*,*,#21,.F.);
#687 = ORIENTED_EDGE('',*,*,#688,.T.);
#688 = EDGE_CURVE('',#22,#22,#689,.T.);
#689 = SURFACE_CURVE('',#690,(#695,#702),.PCURVE_S1.);
#690 = CIRCLE('',#691,0.23);
#691 = AXIS2_PLACEMENT_3D('',#692,#693,#694);
#692 = CARTESIAN_POINT('',(0.,0.,0.));
#693 = DIRECTION('',(0.,1.,0.));
#694 = DIRECTION('',(0.,-0.,1.));
#695 = PCURVE('',#32,#696);
#696 = DEFINITIONAL_REPRESENTATION('',(#697),#701);
#697 = LINE('',#698,#699);
#698 = CARTESIAN_POINT('',(0.,0.));
#699 = VECTOR('',#700,1.);
#700 = DIRECTION('',(1.,0.));
#701 = ( GEOMETRIC_REPRESENTATION_CONTEXT(2) 
PARAMETRIC_REPRESENTATION_CONTEXT() REPRESENTATION_CONTEXT('2D SPACE',''
  ) );
#702 = PCURVE('',#703,#708);
#703 = PLANE('',#704);
#704 = AXIS2_PLACEMENT_3D('',#705,#706,#707);
#705 = CARTESIAN_POINT('',(2.223134723346E-18,0.,-5.806046758404E-18));
#706 = DIRECTION('',(0.,1.,0.));
#707 = DIRECTION('',(0.,-0.,1.));
#708 = DEFINITIONAL_REPRESENTATION('',(#709),#713);
#709 = CIRCLE('',#710,0.23);
#710 = AXIS2_PLACEMENT_2D('',#711,#712);
#711 = CARTESIAN_POINT('',(5.806046758404E-18,-2.223134723346E-18));
#712 = DIRECTION('',(1.,0.));
#713 = ( GEOMETRIC_REPRESENTATION_CONTEXT(2) 
PARAMETRIC_REPRESENTATION_CONTEXT() REPRESENTATION_CONTEXT('2D SPACE',''
  ) );
#714 = ADVANCED_FACE('',(#715),#260,.T.);
#715 = FACE_BOUND('',#716,.T.);
#716 = EDGE_LOOP('',(#717,#756,#781,#782,#783));
#717 = ORIENTED_EDGE('',*,*,#718,.T.);
#718 = EDGE_CURVE('',#24,#719,#721,.T.);
#719 = VERTEX_POINT('',#720);
#720 = CARTESIAN_POINT('',(0.370389940581,1.459302271397,0.23));
#721 = SEAM_CURVE('',#722,(#743,#749),.PCURVE_S1.);
#722 = B_SPLINE_CURVE_WITH_KNOTS('',7,(#723,#724,#725,#726,#727,#728,
    #729,#730,#731,#732,#733,#734,#735,#736,#737,#738,#739,#740,#741,
    #742),.UNSPECIFIED.,.F.,.F.,(8,6,6,8),(-0.85497455189,0.,
    1.178097245096,2.033071796986),.UNSPECIFIED.);
#723 = CARTESIAN_POINT('',(-0.789893489309,-0.277184596102,0.23));
#724 = CARTESIAN_POINT('',(-0.631914791447,-0.211747676882,0.23));
#725 = CARTESIAN_POINT('',(-0.488981683858,-0.152542845206,0.23));
#726 = CARTESIAN_POINT('',(-0.361094166541,-9.957010107519E-02,0.23));
#727 = CARTESIAN_POINT('',(-0.248252239497,-5.282944448919E-02,0.23));
#728 = CARTESIAN_POINT('',(-0.150455902726,-1.2320875448E-02,0.23));
#729 = CARTESIAN_POINT('',(-6.770515622648E-02,2.19556060484E-02,0.23));
#730 = CARTESIAN_POINT('',(9.329313703306E-02,8.864328263542E-02,0.23));
#731 = CARTESIAN_POINT('',(0.178998603038,0.145604689517,0.23));
#732 = CARTESIAN_POINT('',(0.252800895796,0.219095984662,0.23));
#733 = CARTESIAN_POINT('',(0.31090833583,0.306059914271,0.23));
#734 = CARTESIAN_POINT('',(0.350562524523,0.402368243078,0.23));
#735 = CARTESIAN_POINT('',(0.370389940581,0.503347955641,0.23));
#736 = CARTESIAN_POINT('',(0.370389940581,0.677611252526,0.23));
#737 = CARTESIAN_POINT('',(0.370389940581,0.767180015105,0.23));
#738 = CARTESIAN_POINT('',(0.370389940581,0.873034007244,0.23));
#739 = CARTESIAN_POINT('',(0.370389940581,0.995173228942,0.23));
#740 = CARTESIAN_POINT('',(0.370389940581,1.1335976802,0.23));
#741 = CARTESIAN_POINT('',(0.370389940581,1.288307361019,0.23));
#742 = CARTESIAN_POINT('',(0.370389940581,1.459302271397,0.23));
#743 = PCURVE('',#260,#744);
#744 = DEFINITIONAL_REPRESENTATION('',(#745),#748);
#745 = B_SPLINE_CURVE_WITH_KNOTS('',1,(#746,#747),.UNSPECIFIED.,.F.,.F.,
  (2,2),(-0.85497455189,2.033071796986),.PIECEWISE_BEZIER_KNOTS.);
#746 = CARTESIAN_POINT('',(-0.85497455189,1.570796326795));
#747 = CARTESIAN_POINT('',(2.033071796986,1.570796326795));
#748 = ( GEOMETRIC_REPRESENTATION_CONTEXT(2) 
PARAMETRIC_REPRESENTATION_CONTEXT() REPRESENTATION_CONTEXT('2D SPACE',''
  ) );
#749 = PCURVE('',#260,#750);
#750 = DEFINITIONAL_REPRESENTATION('',(#751),#755);
#751 = LINE('',#752,#753);
#752 = CARTESIAN_POINT('',(0.,7.853981633974));
#753 = VECTOR('',#754,1.);
#754 = DIRECTION('',(1.,0.));
#755 = ( GEOMETRIC_REPRESENTATION_CONTEXT(2) 
PARAMETRIC_REPRESENTATION_CONTEXT() REPRESENTATION_CONTEXT('2D SPACE',''
  ) );
#756 = ORIENTED_EDGE('',*,*,#757,.T.);
#757 = EDGE_CURVE('',#719,#719,#758,.T.);
#758 = SURFACE_CURVE('',#759,(#774),.PCURVE_S1.);
#759 = B_SPLINE_CURVE_WITH_KNOTS('',13,(#760,#761,#762,#763,#764,#765,
    #766,#767,#768,#769,#770,#771,#772,#773),.UNSPECIFIED.,.T.,.F.,(14,
    14),(1.570796326795,7.853981633974),.PIECEWISE_BEZIER_KNOTS.);
#760 = CARTESIAN_POINT('',(0.370389940581,1.459302271397,0.23));
#761 = CARTESIAN_POINT('',(0.259225892838,1.459302271397,0.23));
#762 = CARTESIAN_POINT('',(0.148061800645,1.459302271396,0.171794321323)
  );
#763 = CARTESIAN_POINT('',(7.014504274429E-02,1.459302271398,
    5.53864292202E-02));
#764 = CARTESIAN_POINT('',(5.871887386651E-02,1.459302271393,
    -9.835287138969E-02));
#765 = CARTESIAN_POINT('',(0.132462145145,1.459302271401,-0.2475768858)
  );
#766 = CARTESIAN_POINT('',(0.280816975937,1.45930227139,-0.341250995304)
  );
#767 = CARTESIAN_POINT('',(0.459962905227,1.459302271403,-0.341250995319
    ));
#768 = CARTESIAN_POINT('',(0.608317736012,1.459302271392,-0.247576885786
    ));
#769 = CARTESIAN_POINT('',(0.682061007301,1.459302271399,
    -9.835287139908E-02));
#770 = CARTESIAN_POINT('',(0.670634838415,1.459302271395,
    5.538642922489E-02));
#771 = CARTESIAN_POINT('',(0.592718080517,1.459302271397,0.171794321321)
  );
#772 = CARTESIAN_POINT('',(0.481553988324,1.459302271396,0.23));
#773 = CARTESIAN_POINT('',(0.370389940581,1.459302271397,0.23));
#774 = PCURVE('',#260,#775);
#775 = DEFINITIONAL_REPRESENTATION('',(#776),#780);
#776 = LINE('',#777,#778);
#777 = CARTESIAN_POINT('',(2.033071796986,0.));
#778 = VECTOR('',#779,1.);
#779 = DIRECTION('',(0.,1.));
#780 = ( GEOMETRIC_REPRESENTATION_CONTEXT(2) 
PARAMETRIC_REPRESENTATION_CONTEXT() REPRESENTATION_CONTEXT('2D SPACE',''
  ) );
#781 = ORIENTED_EDGE('',*,*,#718,.F.);
#782 = ORIENTED_EDGE('',*,*,#645,.F.);
#783 = ORIENTED_EDGE('',*,*,#50,.T.);
#784 = ADVANCED_FACE('',(#785),#799,.T.);
#785 = FACE_BOUND('',#786,.T.);
#786 = EDGE_LOOP('',(#787,#816,#843,#844));
#787 = ORIENTED_EDGE('',*,*,#788,.T.);
#788 = EDGE_CURVE('',#789,#791,#793,.T.);
#789 = VERTEX_POINT('',#790);
#790 = CARTESIAN_POINT('',(-0.419503548728,0.277143123405,0.23));
#791 = VERTEX_POINT('',#792);
#792 = CARTESIAN_POINT('',(0.786135730211,0.776535264071,0.23));
#793 = SEAM_CURVE('',#794,(#798,#809),.PCURVE_S1.);
#794 = LINE('',#795,#796);
#795 = CARTESIAN_POINT('',(0.370389940581,0.604327719507,0.23));
#796 = VECTOR('',#797,1.);
#797 = DIRECTION('',(0.923879532511,0.382683432365,0.));
#798 = PCURVE('',#799,#804);
#799 = CYLINDRICAL_SURFACE('',#800,0.23);
#800 = AXIS2_PLACEMENT_3D('',#801,#802,#803);
#801 = CARTESIAN_POINT('',(0.370389940581,0.604327719507,0.));
#802 = DIRECTION('',(0.923879532511,0.382683432365,0.));
#803 = DIRECTION('',(-4.248639577543E-17,1.025712328974E-16,1.));
#804 = DEFINITIONAL_REPRESENTATION('',(#805),#808);
#805 = B_SPLINE_CURVE_WITH_KNOTS('',1,(#806,#807),.UNSPECIFIED.,.F.,.F.,
  (2,2),(-0.85497455189,0.45),.PIECEWISE_BEZIER_KNOTS.);
#806 = CARTESIAN_POINT('',(6.28318530718,-0.85497455189));
#807 = CARTESIAN_POINT('',(6.28318530718,0.45));
#808 = ( GEOMETRIC_REPRESENTATION_CONTEXT(2) 
PARAMETRIC_REPRESENTATION_CONTEXT() REPRESENTATION_CONTEXT('2D SPACE',''
  ) );
#809 = PCURVE('',#799,#810);
#810 = DEFINITIONAL_REPRESENTATION('',(#811),#815);
#811 = LINE('',#812,#813);
#812 = CARTESIAN_POINT('',(0.,0.));
#813 = VECTOR('',#814,1.);
#814 = DIRECTION('',(0.,1.));
#815 = ( GEOMETRIC_REPRESENTATION_CONTEXT(2) 
PARAMETRIC_REPRESENTATION_CONTEXT() REPRESENTATION_CONTEXT('2D SPACE',''
  ) );
#816 = ORIENTED_EDGE('',*,*,#817,.F.);
#817 = EDGE_CURVE('',#791,#791,#818,.T.);
#818 = SURFACE_CURVE('',#819,(#824,#831),.PCURVE_S1.);
#819 = CIRCLE('',#820,0.23);
#820 = AXIS2_PLACEMENT_3D('',#821,#822,#823);
#821 = CARTESIAN_POINT('',(0.786135730211,0.776535264071,0.));
#822 = DIRECTION('',(0.923879532511,0.382683432365,-6.162975822039E-33)
  );
#823 = DIRECTION('',(-4.248639577543E-17,1.025712328974E-16,1.));
#824 = PCURVE('',#799,#825);
#825 = DEFINITIONAL_REPRESENTATION('',(#826),#830);
#826 = LINE('',#827,#828);
#827 = CARTESIAN_POINT('',(0.,0.45));
#828 = VECTOR('',#829,1.);
#829 = DIRECTION('',(1.,0.));
#830 = ( GEOMETRIC_REPRESENTATION_CONTEXT(2) 
PARAMETRIC_REPRESENTATION_CONTEXT() REPRESENTATION_CONTEXT('2D SPACE',''
  ) );
#831 = PCURVE('',#832,#837);
#832 = PLANE('',#833);
#833 = AXIS2_PLACEMENT_3D('',#834,#835,#836);
#834 = CARTESIAN_POINT('',(0.786135730211,0.776535264071,
    -1.741814027521E-17));
#835 = DIRECTION('',(0.923879532511,0.382683432365,-1.243380939229E-16)
  );
#836 = DIRECTION('',(-0.382683432365,0.923879532511,0.));
#837 = DEFINITIONAL_REPRESENTATION('',(#838),#842);
#838 = CIRCLE('',#839,0.23);
#839 = AXIS2_PLACEMENT_2D('',#840,#841);
#840 = CARTESIAN_POINT('',(1.025712328974E-16,1.741814027521E-17));
#841 = DIRECTION('',(1.110223024625E-16,1.));
#842 = ( GEOMETRIC_REPRESENTATION_CONTEXT(2) 
PARAMETRIC_REPRESENTATION_CONTEXT() REPRESENTATION_CONTEXT('2D SPACE',''
  ) );
#843 = ORIENTED_EDGE('',*,*,#788,.F.);
#844 = ORIENTED_EDGE('',*,*,#845,.T.);
#845 = EDGE_CURVE('',#789,#789,#846,.T.);
#846 = SURFACE_CURVE('',#847,(#852),.PCURVE_S1.);
#847 = CIRCLE('',#848,0.23);
#848 = AXIS2_PLACEMENT_3D('',#849,#850,#851);
#849 = CARTESIAN_POINT('',(-0.419503548728,0.277143123405,0.));
#850 = DIRECTION('',(0.923879532511,0.382683432365,-6.162975822039E-33)
  );
#851 = DIRECTION('',(-4.248639577543E-17,1.025712328974E-16,1.));
#852 = PCURVE('',#799,#853);
#853 = DEFINITIONAL_REPRESENTATION('',(#854),#858);
#854 = LINE('',#855,#856);
#855 = CARTESIAN_POINT('',(0.,-0.85497455189));
#856 = VECTOR('',#857,1.);
#857 = DIRECTION('',(1.,0.));
#858 = ( GEOMETRIC_REPRESENTATION_CONTEXT(2) 
PARAMETRIC_REPRESENTATION_CONTEXT() REPRESENTATION_CONTEXT('2D SPACE',''
  ) );
#859 = ADVANCED_FACE('',(#860),#703,.F.);
#860 = FACE_BOUND('',#861,.F.);
#861 = EDGE_LOOP('',(#862));
#862 = ORIENTED_EDGE('',*,*,#688,.T.);
#863 = ADVANCED_FACE('',(#864),#832,.T.);
#864 = FACE_BOUND('',#865,.T.);
#865 = EDGE_LOOP('',(#866));
#866 = ORIENTED_EDGE('',*,*,#817,.T.);
#867 = ( GEOMETRIC_REPRESENTATION_CONTEXT(3) 
GLOBAL_UNCERTAINTY_ASSIGNED_CONTEXT((#871)) GLOBAL_UNIT_ASSIGNED_CONTEXT
((#868,#869,#870)) REPRESENTATION_CONTEXT('Context #1',
  '3D Context with UNIT and UNCERTAINTY') );
#868 = ( LENGTH_UNIT() NAMED_UNIT(*) SI_UNIT(.MILLI.,.METRE.) );
#869 = ( NAMED_UNIT(*) PLANE_ANGLE_UNIT() SI_UNIT($,.RADIAN.) );
#870 = ( NAMED_UNIT(*) SI_UNIT($,.STERADIAN.) SOLID_ANGLE_UNIT() );
#871 = UNCERTAINTY_MEASURE_WITH_UNIT(LENGTH_MEASURE(1.E-06),#868,
  'distance_accuracy_value','confusion accuracy');
#872 = PRODUCT_RELATED_PRODUCT_CATEGORY('part',$,(#7));
ENDSEC;
END-ISO-10303-21;
