ISO-10303-21;
HEADER;
FILE_DESCRIPTION(('Open CASCADE Model'),'2;1');
FILE_NAME('Open CASCADE Shape Model','2026-04-29T20:06:33',('Author'),(
    'Open CASCADE'),'Open CASCADE STEP processor 7.8','Open CASCADE 7.8'
  ,'Unknown');
FILE_SCHEMA(('AUTOMOTIVE_DESIGN { 1 0 10303 214 1 1 1 1 }'));
ENDSEC;
DATA;
#1 = APPLICATION_PROTOCOL_DEFINITION('international standard',
  'automotive_design',2000,#2);
#2 = APPLICATION_CONTEXT(
  'core data for automotive mechanical design processes');
#3 = SHAPE_DEFINITION_REPRESENTATION(#4,#10);
#4 = PRODUCT_DEFINITION_SHAPE('','',#5);
#5 = PRODUCT_DEFINITION('design','',#6,#9);
#6 = PRODUCT_DEFINITION_FORMATION('','',#7);
#7 = PRODUCT('Open CASCADE STEP translator 7.8 2',
  'Open CASCADE STEP translator 7.8 2','',(#8));
#8 = PRODUCT_CONTEXT('',#2,'mechanical');
#9 = PRODUCT_DEFINITION_CONTEXT('part definition',#2,'design');
#10 = SHAPE_REPRESENTATION('',(#11,#15,#19),#23);
#11 = AXIS2_PLACEMENT_3D('',#12,#13,#14);
#12 = CARTESIAN_POINT('',(0.,0.,0.));
#13 = DIRECTION('',(0.,0.,1.));
#14 = DIRECTION('',(1.,0.,-0.));
#15 = AXIS2_PLACEMENT_3D('',#16,#17,#18);
#16 = CARTESIAN_POINT('',(0.,0.,0.));
#17 = DIRECTION('',(0.,0.,1.));
#18 = DIRECTION('',(1.,0.,-0.));
#19 = AXIS2_PLACEMENT_3D('',#20,#21,#22);
#20 = CARTESIAN_POINT('',(0.,0.,0.));
#21 = DIRECTION('',(0.,0.,1.));
#22 = DIRECTION('',(1.,0.,-0.));
#23 = ( GEOMETRIC_REPRESENTATION_CONTEXT(3) 
GLOBAL_UNCERTAINTY_ASSIGNED_CONTEXT((#27)) GLOBAL_UNIT_ASSIGNED_CONTEXT(
(#24,#25,#26)) REPRESENTATION_CONTEXT('Context #1',
  '3D Context with UNIT and UNCERTAINTY') );
#24 = ( LENGTH_UNIT() NAMED_UNIT(*) SI_UNIT(.MILLI.,.METRE.) );
#25 = ( NAMED_UNIT(*) PLANE_ANGLE_UNIT() SI_UNIT($,.RADIAN.) );
#26 = ( NAMED_UNIT(*) SI_UNIT($,.STERADIAN.) SOLID_ANGLE_UNIT() );
#27 = UNCERTAINTY_MEASURE_WITH_UNIT(LENGTH_MEASURE(1.E-07),#24,
  'distance_accuracy_value','confusion accuracy');
#28 = PRODUCT_RELATED_PRODUCT_CATEGORY('part',$,(#7));
#29 = SHAPE_DEFINITION_REPRESENTATION(#30,#36);
#30 = PRODUCT_DEFINITION_SHAPE('','',#31);
#31 = PRODUCT_DEFINITION('design','',#32,#35);
#32 = PRODUCT_DEFINITION_FORMATION('','',#33);
#33 = PRODUCT('Open CASCADE STEP translator 7.8 2.1',
  'Open CASCADE STEP translator 7.8 2.1','',(#34));
#34 = PRODUCT_CONTEXT('',#2,'mechanical');
#35 = PRODUCT_DEFINITION_CONTEXT('part definition',#2,'design');
#36 = ADVANCED_BREP_SHAPE_REPRESENTATION('',(#11,#37),#759);
#37 = MANIFOLD_SOLID_BREP('',#38);
#38 = CLOSED_SHELL('',(#39,#250,#398,#433,#611));
#39 = ADVANCED_FACE('',(#40),#54,.T.);
#40 = FACE_BOUND('',#41,.F.);
#41 = EDGE_LOOP('',(#42,#72,#99,#100));
#42 = ORIENTED_EDGE('',*,*,#43,.T.);
#43 = EDGE_CURVE('',#44,#46,#48,.T.);
#44 = VERTEX_POINT('',#45);
#45 = CARTESIAN_POINT('',(54.511735819816,9.43834800376E-17,
    -0.103690436245));
#46 = VERTEX_POINT('',#47);
#47 = CARTESIAN_POINT('',(54.511735819816,9.43834800376E-17,
    8.896309563755));
#48 = SEAM_CURVE('',#49,(#53,#65),.PCURVE_S1.);
#49 = LINE('',#50,#51);
#50 = CARTESIAN_POINT('',(54.511735819816,9.43834800376E-17,
    -0.103690436245));
#51 = VECTOR('',#52,1.);
#52 = DIRECTION('',(0.,0.,1.));
#53 = PCURVE('',#54,#59);
#54 = CYLINDRICAL_SURFACE('',#55,54.505);
#55 = AXIS2_PLACEMENT_3D('',#56,#57,#58);
#56 = CARTESIAN_POINT('',(6.735819815998E-03,9.43834800376E-17,
    -0.103690436245));
#57 = DIRECTION('',(-0.,-0.,-1.));
#58 = DIRECTION('',(1.,0.,0.));
#59 = DEFINITIONAL_REPRESENTATION('',(#60),#64);
#60 = LINE('',#61,#62);
#61 = CARTESIAN_POINT('',(-0.,0.));
#62 = VECTOR('',#63,1.);
#63 = DIRECTION('',(-0.,-1.));
#64 = ( GEOMETRIC_REPRESENTATION_CONTEXT(2) 
PARAMETRIC_REPRESENTATION_CONTEXT() REPRESENTATION_CONTEXT('2D SPACE',''
  ) );
#65 = PCURVE('',#54,#66);
#66 = DEFINITIONAL_REPRESENTATION('',(#67),#71);
#67 = LINE('',#68,#69);
#68 = CARTESIAN_POINT('',(-6.28318530718,0.));
#69 = VECTOR('',#70,1.);
#70 = DIRECTION('',(-0.,-1.));
#71 = ( GEOMETRIC_REPRESENTATION_CONTEXT(2) 
PARAMETRIC_REPRESENTATION_CONTEXT() REPRESENTATION_CONTEXT('2D SPACE',''
  ) );
#72 = ORIENTED_EDGE('',*,*,#73,.T.);
#73 = EDGE_CURVE('',#46,#46,#74,.T.);
#74 = SURFACE_CURVE('',#75,(#80,#87),.PCURVE_S1.);
#75 = CIRCLE('',#76,54.505);
#76 = AXIS2_PLACEMENT_3D('',#77,#78,#79);
#77 = CARTESIAN_POINT('',(6.735819815998E-03,9.43834800376E-17,
    8.896309563755));
#78 = DIRECTION('',(0.,0.,1.));
#79 = DIRECTION('',(1.,0.,0.));
#80 = PCURVE('',#54,#81);
#81 = DEFINITIONAL_REPRESENTATION('',(#82),#86);
#82 = LINE('',#83,#84);
#83 = CARTESIAN_POINT('',(-0.,-9.));
#84 = VECTOR('',#85,1.);
#85 = DIRECTION('',(-1.,0.));
#86 = ( GEOMETRIC_REPRESENTATION_CONTEXT(2) 
PARAMETRIC_REPRESENTATION_CONTEXT() REPRESENTATION_CONTEXT('2D SPACE',''
  ) );
#87 = PCURVE('',#88,#93);
#88 = PLANE('',#89);
#89 = AXIS2_PLACEMENT_3D('',#90,#91,#92);
#90 = CARTESIAN_POINT('',(6.735819815995E-03,4.29202014922E-15,
    8.896309563755));
#91 = DIRECTION('',(0.,0.,1.));
#92 = DIRECTION('',(1.,0.,-0.));
#93 = DEFINITIONAL_REPRESENTATION('',(#94),#98);
#94 = CIRCLE('',#95,54.505);
#95 = AXIS2_PLACEMENT_2D('',#96,#97);
#96 = CARTESIAN_POINT('',(3.210973154033E-15,-4.197636669182E-15));
#97 = DIRECTION('',(1.,0.));
#98 = ( GEOMETRIC_REPRESENTATION_CONTEXT(2) 
PARAMETRIC_REPRESENTATION_CONTEXT() REPRESENTATION_CONTEXT('2D SPACE',''
  ) );
#99 = ORIENTED_EDGE('',*,*,#43,.F.);
#100 = ORIENTED_EDGE('',*,*,#101,.F.);
#101 = EDGE_CURVE('',#44,#44,#102,.T.);
#102 = SURFACE_CURVE('',#103,(#108,#115),.PCURVE_S1.);
#103 = CIRCLE('',#104,54.505);
#104 = AXIS2_PLACEMENT_3D('',#105,#106,#107);
#105 = CARTESIAN_POINT('',(6.735819815998E-03,9.43834800376E-17,
    -0.103690436245));
#106 = DIRECTION('',(0.,0.,1.));
#107 = DIRECTION('',(1.,0.,0.));
#108 = PCURVE('',#54,#109);
#109 = DEFINITIONAL_REPRESENTATION('',(#110),#114);
#110 = LINE('',#111,#112);
#111 = CARTESIAN_POINT('',(-0.,0.));
#112 = VECTOR('',#113,1.);
#113 = DIRECTION('',(-1.,0.));
#114 = ( GEOMETRIC_REPRESENTATION_CONTEXT(2) 
PARAMETRIC_REPRESENTATION_CONTEXT() REPRESENTATION_CONTEXT('2D SPACE',''
  ) );
#115 = PCURVE('',#116,#244);
#116 = SURFACE_OF_REVOLUTION('',#117,#241);
#117 = B_SPLINE_CURVE_WITH_KNOTS('',3,(#118,#119,#120,#121,#122,#123,
    #124,#125,#126,#127,#128,#129,#130,#131,#132,#133,#134,#135,#136,
    #137,#138,#139,#140,#141,#142,#143,#144,#145,#146,#147,#148,#149,
    #150,#151,#152,#153,#154,#155,#156,#157,#158,#159,#160,#161,#162,
    #163,#164,#165,#166,#167,#168,#169,#170,#171,#172,#173,#174,#175,
    #176,#177,#178,#179,#180,#181,#182,#183,#184,#185,#186,#187,#188,
    #189,#190,#191,#192,#193,#194,#195,#196,#197,#198,#199,#200,#201,
    #202,#203,#204,#205,#206,#207,#208,#209,#210,#211,#212,#213,#214,
    #215,#216,#217,#218,#219,#220,#221,#222,#223,#224,#225,#226,#227,
    #228,#229,#230,#231,#232,#233,#234,#235,#236,#237,#238,#239,#240),
  .UNSPECIFIED.,.F.,.F.,(4,1,1,1,1,1,1,1,1,1,1,1,1,1,1,1,1,1,1,1,1,1,1,1
    ,1,1,1,1,1,1,1,1,1,1,1,1,1,1,1,1,1,1,1,1,1,1,1,1,1,1,1,1,1,1,1,1,1,1
    ,1,1,1,1,1,1,1,1,1,1,1,1,1,1,1,1,1,1,1,1,1,1,1,1,1,1,1,1,1,1,1,1,1,1
    ,1,1,1,1,1,1,1,1,1,1,1,1,1,1,1,1,1,1,1,1,1,1,1,1,1,1,1,1,4),(0.,
    9.940485006944E-03,1.988097001389E-02,2.982145502083E-02,
    3.976194002778E-02,4.970242503472E-02,5.964291004166E-02,
    6.958339504861E-02,7.952388005555E-02,8.946436506249E-02,
    9.940485006944E-02,0.109345335076,0.119285820083,0.12922630509,
    0.139166790097,0.149107275104,0.159047760111,0.168988245118,
    0.178928730125,0.188869215132,0.198809700139,0.208750185146,
    0.218690670153,0.22863115516,0.238571640167,0.248512125174,
    0.258452610181,0.268393095187,0.278333580194,0.288274065201,
    0.298214550208,0.308155035215,0.318095520222,0.328036005229,
    0.337976490236,0.347916975243,0.35785746025,0.367797945257,
    0.377738430264,0.387678915271,0.397619400278,1.108350662621,
    1.819081924965,2.529813187309,3.240544449652,3.951275711996,
    4.66200697434,5.372738236683,6.083469499027,6.794200761371,
    7.504932023714,8.215663286058,8.926394548401,9.637125810745,
    10.347857073089,11.058588335432,11.769319597776,12.48005086012,
    13.190782122463,13.901513384807,14.612244647151,15.322975909494,
    16.033707171838,16.744438434181,17.455169696525,18.165900958869,
    18.876632221212,19.587363483556,20.2980947459,21.008826008243,
    21.719557270587,22.430288532931,23.141019795274,23.851751057618,
    24.562482319961,25.273213582305,25.983944844649,26.694676106992,
    27.405407369336,28.11613863168,28.826869894023,29.537601156367,
    30.248332418711,30.959063681054,31.669794943398,32.380526205741,
    33.091257468085,33.801988730429,34.512719992772,35.223451255116,
    35.93418251746,36.644913779803,37.355645042147,38.066376304491,
    38.777107566834,39.487838829178,40.198570091521,40.909301353865,
    41.620032616209,42.330763878552,43.041495140896,43.75222640324,
    44.462957665583,45.173688927927,45.884420190271,46.595151452614,
    47.305882714958,48.016613977302,48.727345239645,49.438076501989,
    50.148807764332,50.859539026676,51.57027028902,52.281001551363,
    52.991732813707,53.702464076051,54.413195338394,55.123926600738,
    55.834657863082,56.545389125425,57.256120387769),.UNSPECIFIED.);
#118 = CARTESIAN_POINT('',(54.511735819816,9.43834800376E-17,
    -0.103690436245));
#119 = CARTESIAN_POINT('',(54.511735834755,9.43834800376E-17,
    -0.107004026701));
#120 = CARTESIAN_POINT('',(54.511648895932,9.43834800376E-17,
    -0.113631205953));
#121 = CARTESIAN_POINT('',(54.511257868134,9.43834800376E-17,
    -0.123565137729));
#122 = CARTESIAN_POINT('',(54.510606437026,9.43834800376E-17,
    -0.13348539698));
#123 = CARTESIAN_POINT('',(54.509695064872,9.43834800376E-17,
    -0.143385159836));
#124 = CARTESIAN_POINT('',(54.508524374834,9.43834800376E-17,
    -0.153257615947));
#125 = CARTESIAN_POINT('',(54.507095173266,9.43834800376E-17,
    -0.163095973905));
#126 = CARTESIAN_POINT('',(54.50540844307,9.43834800376E-17,
    -0.172893465718));
#127 = CARTESIAN_POINT('',(54.50346534465,9.43834800376E-17,
    -0.182643351516));
#128 = CARTESIAN_POINT('',(54.50126721468,9.43834800376E-17,
    -0.192338924175));
#129 = CARTESIAN_POINT('',(54.498815565299,9.43834800376E-17,
    -0.201973513935));
#130 = CARTESIAN_POINT('',(54.496112083038,9.43834800376E-17,
    -0.211540492988));
#131 = CARTESIAN_POINT('',(54.493158627673,9.43834800376E-17,
    -0.221033280037));
#132 = CARTESIAN_POINT('',(54.489957230939,9.43834800376E-17,
    -0.230445344821));
#133 = CARTESIAN_POINT('',(54.486510095135,9.43834800376E-17,
    -0.23977021261));
#134 = CARTESIAN_POINT('',(54.482819591607,9.43834800376E-17,
    -0.24900146866));
#135 = CARTESIAN_POINT('',(54.47888825912,9.43834800376E-17,
    -0.258132762622));
#136 = CARTESIAN_POINT('',(54.474718802109,9.43834800376E-17,
    -0.267157812914));
#137 = CARTESIAN_POINT('',(54.470314088818,9.43834800376E-17,
    -0.276070411041));
#138 = CARTESIAN_POINT('',(54.46567714933,9.43834800376E-17,
    -0.284864425865));
#139 = CARTESIAN_POINT('',(54.460811173478,9.43834800376E-17,
    -0.293533807824));
#140 = CARTESIAN_POINT('',(54.455719508657,9.43834800376E-17,
    -0.302072593094));
#141 = CARTESIAN_POINT('',(54.450405657513,9.43834800376E-17,
    -0.31047490769));
#142 = CARTESIAN_POINT('',(54.444873275542,9.43834800376E-17,
    -0.318734971507));
#143 = CARTESIAN_POINT('',(54.439126168569,9.43834800376E-17,
    -0.326847102299));
#144 = CARTESIAN_POINT('',(54.433168290133,9.43834800376E-17,
    -0.334805719583));
#145 = CARTESIAN_POINT('',(54.427003738765,9.43834800376E-17,
    -0.342605348484));
#146 = CARTESIAN_POINT('',(54.420636755175,9.43834800376E-17,
    -0.350240623496));
#147 = CARTESIAN_POINT('',(54.414071719319,9.43834800376E-17,
    -0.357706292167));
#148 = CARTESIAN_POINT('',(54.407313147426,9.43834800376E-17,
    -0.364997218766));
#149 = CARTESIAN_POINT('',(54.400365688757,9.43834800376E-17,
    -0.372108387589));
#150 = CARTESIAN_POINT('',(54.393234122904,9.43834800376E-17,
    -0.379034907272));
#151 = CARTESIAN_POINT('',(54.385923354648,9.43834800376E-17,
    -0.385772010931));
#152 = CARTESIAN_POINT('',(54.378438417499,9.43834800376E-17,
    -0.392315071476));
#153 = CARTESIAN_POINT('',(54.370784444426,9.43834800376E-17,
    -0.398659559883));
#154 = CARTESIAN_POINT('',(54.362966760656,9.43834800376E-17,
    -0.40480121591));
#155 = CARTESIAN_POINT('',(54.354990520488,9.43834800376E-17,
    -0.410735425552));
#156 = CARTESIAN_POINT('',(54.346862045511,9.43834800376E-17,
    -0.416459558508));
#157 = CARTESIAN_POINT('',(54.33858381272,9.43834800376E-17,
    -0.421964258295));
#158 = CARTESIAN_POINT('',(54.33017314119,9.43834800376E-17,
    -0.427265961178));
#159 = CARTESIAN_POINT('',(54.119949679848,9.43834800376E-17,
    -0.550243545155));
#160 = CARTESIAN_POINT('',(53.704209261648,9.43834800376E-17,
    -0.784393732701));
#161 = CARTESIAN_POINT('',(53.085077506455,9.43834800376E-17,
    -1.133412161586));
#162 = CARTESIAN_POINT('',(52.463037608277,9.43834800376E-17,
    -1.477239970075));
#163 = CARTESIAN_POINT('',(51.838942001749,9.43834800376E-17,
    -1.817311619506));
#164 = CARTESIAN_POINT('',(51.212595898527,9.43834800376E-17,
    -2.153224371475));
#165 = CARTESIAN_POINT('',(50.584085231921,9.43834800376E-17,
    -2.485067983378));
#166 = CARTESIAN_POINT('',(49.953420833769,9.43834800376E-17,
    -2.812800469146));
#167 = CARTESIAN_POINT('',(49.320633775516,9.43834800376E-17,
    -3.136415364409));
#168 = CARTESIAN_POINT('',(48.685749820204,9.43834800376E-17,
    -3.45589690869));
#169 = CARTESIAN_POINT('',(48.048796266594,9.43834800376E-17,
    -3.77123205504));
#170 = CARTESIAN_POINT('',(47.40980011383,9.43834800376E-17,
    -4.082407252802));
#171 = CARTESIAN_POINT('',(46.768788551763,9.43834800376E-17,
    -4.389409310389));
#172 = CARTESIAN_POINT('',(46.1257888281,9.43834800376E-17,
    -4.69222516482));
#173 = CARTESIAN_POINT('',(45.480828282535,9.43834800376E-17,
    -4.99084194418));
#174 = CARTESIAN_POINT('',(44.833934336134,9.43834800376E-17,
    -5.285246951579));
#175 = CARTESIAN_POINT('',(44.185134492696,9.43834800376E-17,
    -5.575427670134));
#176 = CARTESIAN_POINT('',(43.534456336912,9.43834800376E-17,
    -5.861371762315));
#177 = CARTESIAN_POINT('',(42.881927533369,9.43834800376E-17,
    -6.143067070783));
#178 = CARTESIAN_POINT('',(42.227575825326,9.43834800376E-17,
    -6.420501618828));
#179 = CARTESIAN_POINT('',(41.571429033551,9.43834800376E-17,
    -6.693663610896));
#180 = CARTESIAN_POINT('',(40.913515055129,9.43834800376E-17,
    -6.962541433084));
#181 = CARTESIAN_POINT('',(40.253861862283,9.43834800376E-17,
    -7.227123653642));
#182 = CARTESIAN_POINT('',(39.592497501178,9.43834800376E-17,
    -7.487399023449));
#183 = CARTESIAN_POINT('',(38.929450090736,9.43834800376E-17,
    -7.7433564765));
#184 = CARTESIAN_POINT('',(38.264747821431,9.43834800376E-17,
    -7.994985130371));
#185 = CARTESIAN_POINT('',(37.598418954101,9.43834800376E-17,
    -8.242274286684));
#186 = CARTESIAN_POINT('',(36.930491818739,9.43834800376E-17,
    -8.485213431561));
#187 = CARTESIAN_POINT('',(36.26099481329,9.43834800376E-17,
    -8.723792236073));
#188 = CARTESIAN_POINT('',(35.589956402446,9.43834800376E-17,
    -8.958000556676));
#189 = CARTESIAN_POINT('',(34.917405116434,9.43834800376E-17,
    -9.187828435645));
#190 = CARTESIAN_POINT('',(34.243369549803,9.43834800376E-17,
    -9.413266101493));
#191 = CARTESIAN_POINT('',(33.567878360208,9.43834800376E-17,
    -9.634303969395));
#192 = CARTESIAN_POINT('',(32.890960267192,9.43834800376E-17,
    -9.850932641585));
#193 = CARTESIAN_POINT('',(32.212644050966,9.43834800376E-17,
    -10.06314290776));
#194 = CARTESIAN_POINT('',(31.532958551183,9.43834800376E-17,
    -10.27092574548));
#195 = CARTESIAN_POINT('',(30.851932665714,9.43834800376E-17,
    -10.47427232054));
#196 = CARTESIAN_POINT('',(30.169595349419,9.43834800376E-17,
    -10.67317398735));
#197 = CARTESIAN_POINT('',(29.485975612915,9.43834800376E-17,
    -10.8676222893));
#198 = CARTESIAN_POINT('',(28.801102521343,9.43834800376E-17,
    -11.05760895911));
#199 = CARTESIAN_POINT('',(28.115005193132,9.43834800376E-17,
    -11.24312591922));
#200 = CARTESIAN_POINT('',(27.427712798761,9.43834800376E-17,
    -11.42416528209));
#201 = CARTESIAN_POINT('',(26.739254559521,9.43834800376E-17,
    -11.60071935055));
#202 = CARTESIAN_POINT('',(26.049659746269,9.43834800376E-17,
    -11.77278061813));
#203 = CARTESIAN_POINT('',(25.358957678185,9.43834800376E-17,
    -11.94034176939));
#204 = CARTESIAN_POINT('',(24.667177721526,9.43834800376E-17,
    -12.10339568021));
#205 = CARTESIAN_POINT('',(23.974349288378,9.43834800376E-17,
    -12.2619354181));
#206 = CARTESIAN_POINT('',(23.280501835404,9.43834800376E-17,
    -12.4159542425));
#207 = CARTESIAN_POINT('',(22.585664862592,9.43834800376E-17,
    -12.56544560506));
#208 = CARTESIAN_POINT('',(21.889867912,9.43834800376E-17,
    -12.71040314993));
#209 = CARTESIAN_POINT('',(21.193140566503,9.43834800376E-17,
    -12.85082071401));
#210 = CARTESIAN_POINT('',(20.495512448532,9.43834800376E-17,
    -12.98669232725));
#211 = CARTESIAN_POINT('',(19.797013218815,9.43834800376E-17,
    -13.11801221284));
#212 = CARTESIAN_POINT('',(19.097672575119,9.43834800376E-17,
    -13.24477478753));
#213 = CARTESIAN_POINT('',(18.397520250981,9.43834800376E-17,
    -13.3669746618));
#214 = CARTESIAN_POINT('',(17.696586014453,9.43834800376E-17,
    -13.48460664015));
#215 = CARTESIAN_POINT('',(16.994899666827,9.43834800376E-17,
    -13.59766572127));
#216 = CARTESIAN_POINT('',(16.292491041375,9.43834800376E-17,
    -13.70614709827));
#217 = CARTESIAN_POINT('',(15.589390002074,9.43834800376E-17,
    -13.81004615891));
#218 = CARTESIAN_POINT('',(14.885626442345,9.43834800376E-17,
    -13.90935848576));
#219 = CARTESIAN_POINT('',(14.181230283773,9.43834800376E-17,
    -14.0040798564));
#220 = CARTESIAN_POINT('',(13.476231474841,9.43834800376E-17,
    -14.09420624361));
#221 = CARTESIAN_POINT('',(12.770659989654,9.43834800376E-17,
    -14.17973381553));
#222 = CARTESIAN_POINT('',(12.064545826665,9.43834800376E-17,
    -14.26065893582));
#223 = CARTESIAN_POINT('',(11.3579190074,9.43834800376E-17,
    -14.33697816383));
#224 = CARTESIAN_POINT('',(10.650809575182,9.43834800376E-17,
    -14.40868825472));
#225 = CARTESIAN_POINT('',(9.943247593852,9.43834800376E-17,
    -14.47578615963));
#226 = CARTESIAN_POINT('',(9.235263146493,9.43834800376E-17,
    -14.5382690258));
#227 = CARTESIAN_POINT('',(8.526886334148,9.43834800376E-17,
    -14.59613419666));
#228 = CARTESIAN_POINT('',(7.818147274543,9.43834800376E-17,
    -14.649379212));
#229 = CARTESIAN_POINT('',(7.109076100806,9.43834800376E-17,
    -14.69800180801));
#230 = CARTESIAN_POINT('',(6.399702960186,9.43834800376E-17,
    -14.74199991743));
#231 = CARTESIAN_POINT('',(5.690058012767,9.43834800376E-17,
    -14.78137166962));
#232 = CARTESIAN_POINT('',(4.980171430193,9.43834800376E-17,
    -14.81611539063));
#233 = CARTESIAN_POINT('',(4.270073394381,9.43834800376E-17,
    -14.84622960328));
#234 = CARTESIAN_POINT('',(3.559794096236,9.43834800376E-17,
    -14.87171302715));
#235 = CARTESIAN_POINT('',(2.849363734374,9.43834800376E-17,
    -14.89256457907));
#236 = CARTESIAN_POINT('',(2.138812513822,9.43834800376E-17,
    -14.90878337139));
#237 = CARTESIAN_POINT('',(1.428170644787,9.43834800376E-17,
    -14.9203687187));
#238 = CARTESIAN_POINT('',(0.717468341174,9.43834800376E-17,
    -14.92732011291));
#239 = CARTESIAN_POINT('',(0.24364666042,9.43834800376E-17,
    -14.92886491526));
#240 = CARTESIAN_POINT('',(6.735819816005E-03,9.43834800376E-17,
    -14.92886489884));
#241 = AXIS1_PLACEMENT('',#242,#243);
#242 = CARTESIAN_POINT('',(6.735819815998E-03,9.43834800376E-17,
    -0.103690436245));
#243 = DIRECTION('',(0.,0.,1.));
#244 = DEFINITIONAL_REPRESENTATION('',(#245),#249);
#245 = LINE('',#246,#247);
#246 = CARTESIAN_POINT('',(0.,0.));
#247 = VECTOR('',#248,1.);
#248 = DIRECTION('',(1.,0.));
#249 = ( GEOMETRIC_REPRESENTATION_CONTEXT(2) 
PARAMETRIC_REPRESENTATION_CONTEXT() REPRESENTATION_CONTEXT('2D SPACE',''
  ) );
#250 = ADVANCED_FACE('',(#251),#116,.F.);
#251 = FACE_BOUND('',#252,.F.);
#252 = EDGE_LOOP('',(#253,#396,#397));
#253 = ORIENTED_EDGE('',*,*,#254,.F.);
#254 = EDGE_CURVE('',#44,#255,#257,.T.);
#255 = VERTEX_POINT('',#256);
#256 = CARTESIAN_POINT('',(6.735819816005E-03,9.43834800376E-17,
    -14.92886489884));
#257 = SEAM_CURVE('',#258,(#382,#389),.PCURVE_S1.);
#258 = B_SPLINE_CURVE_WITH_KNOTS('',3,(#259,#260,#261,#262,#263,#264,
    #265,#266,#267,#268,#269,#270,#271,#272,#273,#274,#275,#276,#277,
    #278,#279,#280,#281,#282,#283,#284,#285,#286,#287,#288,#289,#290,
    #291,#292,#293,#294,#295,#296,#297,#298,#299,#300,#301,#302,#303,
    #304,#305,#306,#307,#308,#309,#310,#311,#312,#313,#314,#315,#316,
    #317,#318,#319,#320,#321,#322,#323,#324,#325,#326,#327,#328,#329,
    #330,#331,#332,#333,#334,#335,#336,#337,#338,#339,#340,#341,#342,
    #343,#344,#345,#346,#347,#348,#349,#350,#351,#352,#353,#354,#355,
    #356,#357,#358,#359,#360,#361,#362,#363,#364,#365,#366,#367,#368,
    #369,#370,#371,#372,#373,#374,#375,#376,#377,#378,#379,#380,#381),
  .UNSPECIFIED.,.F.,.F.,(4,1,1,1,1,1,1,1,1,1,1,1,1,1,1,1,1,1,1,1,1,1,1,1
    ,1,1,1,1,1,1,1,1,1,1,1,1,1,1,1,1,1,1,1,1,1,1,1,1,1,1,1,1,1,1,1,1,1,1
    ,1,1,1,1,1,1,1,1,1,1,1,1,1,1,1,1,1,1,1,1,1,1,1,1,1,1,1,1,1,1,1,1,1,1
    ,1,1,1,1,1,1,1,1,1,1,1,1,1,1,1,1,1,1,1,1,1,1,1,1,1,1,1,1,4),(0.,
    9.940485006944E-03,1.988097001389E-02,2.982145502083E-02,
    3.976194002778E-02,4.970242503472E-02,5.964291004166E-02,
    6.958339504861E-02,7.952388005555E-02,8.946436506249E-02,
    9.940485006944E-02,0.109345335076,0.119285820083,0.12922630509,
    0.139166790097,0.149107275104,0.159047760111,0.168988245118,
    0.178928730125,0.188869215132,0.198809700139,0.208750185146,
    0.218690670153,0.22863115516,0.238571640167,0.248512125174,
    0.258452610181,0.268393095187,0.278333580194,0.288274065201,
    0.298214550208,0.308155035215,0.318095520222,0.328036005229,
    0.337976490236,0.347916975243,0.35785746025,0.367797945257,
    0.377738430264,0.387678915271,0.397619400278,1.108350662621,
    1.819081924965,2.529813187309,3.240544449652,3.951275711996,
    4.66200697434,5.372738236683,6.083469499027,6.794200761371,
    7.504932023714,8.215663286058,8.926394548401,9.637125810745,
    10.347857073089,11.058588335432,11.769319597776,12.48005086012,
    13.190782122463,13.901513384807,14.612244647151,15.322975909494,
    16.033707171838,16.744438434181,17.455169696525,18.165900958869,
    18.876632221212,19.587363483556,20.2980947459,21.008826008243,
    21.719557270587,22.430288532931,23.141019795274,23.851751057618,
    24.562482319961,25.273213582305,25.983944844649,26.694676106992,
    27.405407369336,28.11613863168,28.826869894023,29.537601156367,
    30.248332418711,30.959063681054,31.669794943398,32.380526205741,
    33.091257468085,33.801988730429,34.512719992772,35.223451255116,
    35.93418251746,36.644913779803,37.355645042147,38.066376304491,
    38.777107566834,39.487838829178,40.198570091521,40.909301353865,
    41.620032616209,42.330763878552,43.041495140896,43.75222640324,
    44.462957665583,45.173688927927,45.884420190271,46.595151452614,
    47.305882714958,48.016613977302,48.727345239645,49.438076501989,
    50.148807764332,50.859539026676,51.57027028902,52.281001551363,
    52.991732813707,53.702464076051,54.413195338394,55.123926600738,
    55.834657863082,56.545389125425,57.256120387769),.UNSPECIFIED.);
#259 = CARTESIAN_POINT('',(54.511735819816,9.43834800376E-17,
    -0.103690436245));
#260 = CARTESIAN_POINT('',(54.511735834755,9.43834800376E-17,
    -0.107004026701));
#261 = CARTESIAN_POINT('',(54.511648895932,9.43834800376E-17,
    -0.113631205953));
#262 = CARTESIAN_POINT('',(54.511257868134,9.43834800376E-17,
    -0.123565137729));
#263 = CARTESIAN_POINT('',(54.510606437026,9.43834800376E-17,
    -0.13348539698));
#264 = CARTESIAN_POINT('',(54.509695064872,9.43834800376E-17,
    -0.143385159836));
#265 = CARTESIAN_POINT('',(54.508524374834,9.43834800376E-17,
    -0.153257615947));
#266 = CARTESIAN_POINT('',(54.507095173266,9.43834800376E-17,
    -0.163095973905));
#267 = CARTESIAN_POINT('',(54.50540844307,9.43834800376E-17,
    -0.172893465718));
#268 = CARTESIAN_POINT('',(54.50346534465,9.43834800376E-17,
    -0.182643351516));
#269 = CARTESIAN_POINT('',(54.50126721468,9.43834800376E-17,
    -0.192338924175));
#270 = CARTESIAN_POINT('',(54.498815565299,9.43834800376E-17,
    -0.201973513935));
#271 = CARTESIAN_POINT('',(54.496112083038,9.43834800376E-17,
    -0.211540492988));
#272 = CARTESIAN_POINT('',(54.493158627673,9.43834800376E-17,
    -0.221033280037));
#273 = CARTESIAN_POINT('',(54.489957230939,9.43834800376E-17,
    -0.230445344821));
#274 = CARTESIAN_POINT('',(54.486510095135,9.43834800376E-17,
    -0.23977021261));
#275 = CARTESIAN_POINT('',(54.482819591607,9.43834800376E-17,
    -0.24900146866));
#276 = CARTESIAN_POINT('',(54.47888825912,9.43834800376E-17,
    -0.258132762622));
#277 = CARTESIAN_POINT('',(54.474718802109,9.43834800376E-17,
    -0.267157812914));
#278 = CARTESIAN_POINT('',(54.470314088818,9.43834800376E-17,
    -0.276070411041));
#279 = CARTESIAN_POINT('',(54.46567714933,9.43834800376E-17,
    -0.284864425865));
#280 = CARTESIAN_POINT('',(54.460811173478,9.43834800376E-17,
    -0.293533807824));
#281 = CARTESIAN_POINT('',(54.455719508657,9.43834800376E-17,
    -0.302072593094));
#282 = CARTESIAN_POINT('',(54.450405657513,9.43834800376E-17,
    -0.31047490769));
#283 = CARTESIAN_POINT('',(54.444873275542,9.43834800376E-17,
    -0.318734971507));
#284 = CARTESIAN_POINT('',(54.439126168569,9.43834800376E-17,
    -0.326847102299));
#285 = CARTESIAN_POINT('',(54.433168290133,9.43834800376E-17,
    -0.334805719583));
#286 = CARTESIAN_POINT('',(54.427003738765,9.43834800376E-17,
    -0.342605348484));
#287 = CARTESIAN_POINT('',(54.420636755175,9.43834800376E-17,
    -0.350240623496));
#288 = CARTESIAN_POINT('',(54.414071719319,9.43834800376E-17,
    -0.357706292167));
#289 = CARTESIAN_POINT('',(54.407313147426,9.43834800376E-17,
    -0.364997218766));
#290 = CARTESIAN_POINT('',(54.400365688757,9.43834800376E-17,
    -0.372108387589));
#291 = CARTESIAN_POINT('',(54.393234122904,9.43834800376E-17,
    -0.379034907272));
#292 = CARTESIAN_POINT('',(54.385923354648,9.43834800376E-17,
    -0.385772010931));
#293 = CARTESIAN_POINT('',(54.378438417499,9.43834800376E-17,
    -0.392315071476));
#294 = CARTESIAN_POINT('',(54.370784444426,9.43834800376E-17,
    -0.398659559883));
#295 = CARTESIAN_POINT('',(54.362966760656,9.43834800376E-17,
    -0.40480121591));
#296 = CARTESIAN_POINT('',(54.354990520488,9.43834800376E-17,
    -0.410735425552));
#297 = CARTESIAN_POINT('',(54.346862045511,9.43834800376E-17,
    -0.416459558508));
#298 = CARTESIAN_POINT('',(54.33858381272,9.43834800376E-17,
    -0.421964258295));
#299 = CARTESIAN_POINT('',(54.33017314119,9.43834800376E-17,
    -0.427265961178));
#300 = CARTESIAN_POINT('',(54.119949679848,9.43834800376E-17,
    -0.550243545155));
#301 = CARTESIAN_POINT('',(53.704209261648,9.43834800376E-17,
    -0.784393732701));
#302 = CARTESIAN_POINT('',(53.085077506455,9.43834800376E-17,
    -1.133412161586));
#303 = CARTESIAN_POINT('',(52.463037608277,9.43834800376E-17,
    -1.477239970075));
#304 = CARTESIAN_POINT('',(51.838942001749,9.43834800376E-17,
    -1.817311619506));
#305 = CARTESIAN_POINT('',(51.212595898527,9.43834800376E-17,
    -2.153224371475));
#306 = CARTESIAN_POINT('',(50.584085231921,9.43834800376E-17,
    -2.485067983378));
#307 = CARTESIAN_POINT('',(49.953420833769,9.43834800376E-17,
    -2.812800469146));
#308 = CARTESIAN_POINT('',(49.320633775516,9.43834800376E-17,
    -3.136415364409));
#309 = CARTESIAN_POINT('',(48.685749820204,9.43834800376E-17,
    -3.45589690869));
#310 = CARTESIAN_POINT('',(48.048796266594,9.43834800376E-17,
    -3.77123205504));
#311 = CARTESIAN_POINT('',(47.40980011383,9.43834800376E-17,
    -4.082407252802));
#312 = CARTESIAN_POINT('',(46.768788551763,9.43834800376E-17,
    -4.389409310389));
#313 = CARTESIAN_POINT('',(46.1257888281,9.43834800376E-17,
    -4.69222516482));
#314 = CARTESIAN_POINT('',(45.480828282535,9.43834800376E-17,
    -4.99084194418));
#315 = CARTESIAN_POINT('',(44.833934336134,9.43834800376E-17,
    -5.285246951579));
#316 = CARTESIAN_POINT('',(44.185134492696,9.43834800376E-17,
    -5.575427670134));
#317 = CARTESIAN_POINT('',(43.534456336912,9.43834800376E-17,
    -5.861371762315));
#318 = CARTESIAN_POINT('',(42.881927533369,9.43834800376E-17,
    -6.143067070783));
#319 = CARTESIAN_POINT('',(42.227575825326,9.43834800376E-17,
    -6.420501618828));
#320 = CARTESIAN_POINT('',(41.571429033551,9.43834800376E-17,
    -6.693663610896));
#321 = CARTESIAN_POINT('',(40.913515055129,9.43834800376E-17,
    -6.962541433084));
#322 = CARTESIAN_POINT('',(40.253861862283,9.43834800376E-17,
    -7.227123653642));
#323 = CARTESIAN_POINT('',(39.592497501178,9.43834800376E-17,
    -7.487399023449));
#324 = CARTESIAN_POINT('',(38.929450090736,9.43834800376E-17,
    -7.7433564765));
#325 = CARTESIAN_POINT('',(38.264747821431,9.43834800376E-17,
    -7.994985130371));
#326 = CARTESIAN_POINT('',(37.598418954101,9.43834800376E-17,
    -8.242274286684));
#327 = CARTESIAN_POINT('',(36.930491818739,9.43834800376E-17,
    -8.485213431561));
#328 = CARTESIAN_POINT('',(36.26099481329,9.43834800376E-17,
    -8.723792236073));
#329 = CARTESIAN_POINT('',(35.589956402446,9.43834800376E-17,
    -8.958000556676));
#330 = CARTESIAN_POINT('',(34.917405116434,9.43834800376E-17,
    -9.187828435645));
#331 = CARTESIAN_POINT('',(34.243369549803,9.43834800376E-17,
    -9.413266101493));
#332 = CARTESIAN_POINT('',(33.567878360208,9.43834800376E-17,
    -9.634303969395));
#333 = CARTESIAN_POINT('',(32.890960267192,9.43834800376E-17,
    -9.850932641585));
#334 = CARTESIAN_POINT('',(32.212644050966,9.43834800376E-17,
    -10.06314290776));
#335 = CARTESIAN_POINT('',(31.532958551183,9.43834800376E-17,
    -10.27092574548));
#336 = CARTESIAN_POINT('',(30.851932665714,9.43834800376E-17,
    -10.47427232054));
#337 = CARTESIAN_POINT('',(30.169595349419,9.43834800376E-17,
    -10.67317398735));
#338 = CARTESIAN_POINT('',(29.485975612915,9.43834800376E-17,
    -10.8676222893));
#339 = CARTESIAN_POINT('',(28.801102521343,9.43834800376E-17,
    -11.05760895911));
#340 = CARTESIAN_POINT('',(28.115005193132,9.43834800376E-17,
    -11.24312591922));
#341 = CARTESIAN_POINT('',(27.427712798761,9.43834800376E-17,
    -11.42416528209));
#342 = CARTESIAN_POINT('',(26.739254559521,9.43834800376E-17,
    -11.60071935055));
#343 = CARTESIAN_POINT('',(26.049659746269,9.43834800376E-17,
    -11.77278061813));
#344 = CARTESIAN_POINT('',(25.358957678185,9.43834800376E-17,
    -11.94034176939));
#345 = CARTESIAN_POINT('',(24.667177721526,9.43834800376E-17,
    -12.10339568021));
#346 = CARTESIAN_POINT('',(23.974349288378,9.43834800376E-17,
    -12.2619354181));
#347 = CARTESIAN_POINT('',(23.280501835404,9.43834800376E-17,
    -12.4159542425));
#348 = CARTESIAN_POINT('',(22.585664862592,9.43834800376E-17,
    -12.56544560506));
#349 = CARTESIAN_POINT('',(21.889867912,9.43834800376E-17,
    -12.71040314993));
#350 = CARTESIAN_POINT('',(21.193140566503,9.43834800376E-17,
    -12.85082071401));
#351 = CARTESIAN_POINT('',(20.495512448532,9.43834800376E-17,
    -12.98669232725));
#352 = CARTESIAN_POINT('',(19.797013218815,9.43834800376E-17,
    -13.11801221284));
#353 = CARTESIAN_POINT('',(19.097672575119,9.43834800376E-17,
    -13.24477478753));
#354 = CARTESIAN_POINT('',(18.397520250981,9.43834800376E-17,
    -13.3669746618));
#355 = CARTESIAN_POINT('',(17.696586014453,9.43834800376E-17,
    -13.48460664015));
#356 = CARTESIAN_POINT('',(16.994899666827,9.43834800376E-17,
    -13.59766572127));
#357 = CARTESIAN_POINT('',(16.292491041375,9.43834800376E-17,
    -13.70614709827));
#358 = CARTESIAN_POINT('',(15.589390002074,9.43834800376E-17,
    -13.81004615891));
#359 = CARTESIAN_POINT('',(14.885626442345,9.43834800376E-17,
    -13.90935848576));
#360 = CARTESIAN_POINT('',(14.181230283773,9.43834800376E-17,
    -14.0040798564));
#361 = CARTESIAN_POINT('',(13.476231474841,9.43834800376E-17,
    -14.09420624361));
#362 = CARTESIAN_POINT('',(12.770659989654,9.43834800376E-17,
    -14.17973381553));
#363 = CARTESIAN_POINT('',(12.064545826665,9.43834800376E-17,
    -14.26065893582));
#364 = CARTESIAN_POINT('',(11.3579190074,9.43834800376E-17,
    -14.33697816383));
#365 = CARTESIAN_POINT('',(10.650809575182,9.43834800376E-17,
    -14.40868825472));
#366 = CARTESIAN_POINT('',(9.943247593852,9.43834800376E-17,
    -14.47578615963));
#367 = CARTESIAN_POINT('',(9.235263146493,9.43834800376E-17,
    -14.5382690258));
#368 = CARTESIAN_POINT('',(8.526886334148,9.43834800376E-17,
    -14.59613419666));
#369 = CARTESIAN_POINT('',(7.818147274543,9.43834800376E-17,
    -14.649379212));
#370 = CARTESIAN_POINT('',(7.109076100806,9.43834800376E-17,
    -14.69800180801));
#371 = CARTESIAN_POINT('',(6.399702960186,9.43834800376E-17,
    -14.74199991743));
#372 = CARTESIAN_POINT('',(5.690058012767,9.43834800376E-17,
    -14.78137166962));
#373 = CARTESIAN_POINT('',(4.980171430193,9.43834800376E-17,
    -14.81611539063));
#374 = CARTESIAN_POINT('',(4.270073394381,9.43834800376E-17,
    -14.84622960328));
#375 = CARTESIAN_POINT('',(3.559794096236,9.43834800376E-17,
    -14.87171302715));
#376 = CARTESIAN_POINT('',(2.849363734374,9.43834800376E-17,
    -14.89256457907));
#377 = CARTESIAN_POINT('',(2.138812513822,9.43834800376E-17,
    -14.90878337139));
#378 = CARTESIAN_POINT('',(1.428170644787,9.43834800376E-17,
    -14.9203687187));
#379 = CARTESIAN_POINT('',(0.717468341174,9.43834800376E-17,
    -14.92732011291));
#380 = CARTESIAN_POINT('',(0.24364666042,9.43834800376E-17,
    -14.92886491526));
#381 = CARTESIAN_POINT('',(6.735819816005E-03,9.43834800376E-17,
    -14.92886489884));
#382 = PCURVE('',#116,#383);
#383 = DEFINITIONAL_REPRESENTATION('',(#384),#388);
#384 = LINE('',#385,#386);
#385 = CARTESIAN_POINT('',(0.,0.));
#386 = VECTOR('',#387,1.);
#387 = DIRECTION('',(0.,1.));
#388 = ( GEOMETRIC_REPRESENTATION_CONTEXT(2) 
PARAMETRIC_REPRESENTATION_CONTEXT() REPRESENTATION_CONTEXT('2D SPACE',''
  ) );
#389 = PCURVE('',#116,#390);
#390 = DEFINITIONAL_REPRESENTATION('',(#391),#395);
#391 = LINE('',#392,#393);
#392 = CARTESIAN_POINT('',(6.28318530718,0.));
#393 = VECTOR('',#394,1.);
#394 = DIRECTION('',(0.,1.));
#395 = ( GEOMETRIC_REPRESENTATION_CONTEXT(2) 
PARAMETRIC_REPRESENTATION_CONTEXT() REPRESENTATION_CONTEXT('2D SPACE',''
  ) );
#396 = ORIENTED_EDGE('',*,*,#101,.T.);
#397 = ORIENTED_EDGE('',*,*,#254,.T.);
#398 = ADVANCED_FACE('',(#399,#402),#88,.T.);
#399 = FACE_BOUND('',#400,.T.);
#400 = EDGE_LOOP('',(#401));
#401 = ORIENTED_EDGE('',*,*,#73,.T.);
#402 = FACE_BOUND('',#403,.T.);
#403 = EDGE_LOOP('',(#404));
#404 = ORIENTED_EDGE('',*,*,#405,.F.);
#405 = EDGE_CURVE('',#406,#406,#408,.T.);
#406 = VERTEX_POINT('',#407);
#407 = CARTESIAN_POINT('',(4.511735819816,9.43834800376E-17,
    8.896309563755));
#408 = SURFACE_CURVE('',#409,(#414,#421),.PCURVE_S1.);
#409 = CIRCLE('',#410,4.505);
#410 = AXIS2_PLACEMENT_3D('',#411,#412,#413);
#411 = CARTESIAN_POINT('',(6.735819815998E-03,9.43834800376E-17,
    8.896309563755));
#412 = DIRECTION('',(0.,0.,1.));
#413 = DIRECTION('',(1.,0.,0.));
#414 = PCURVE('',#88,#415);
#415 = DEFINITIONAL_REPRESENTATION('',(#416),#420);
#416 = CIRCLE('',#417,4.505);
#417 = AXIS2_PLACEMENT_2D('',#418,#419);
#418 = CARTESIAN_POINT('',(3.210973154033E-15,-4.197636669182E-15));
#419 = DIRECTION('',(1.,0.));
#420 = ( GEOMETRIC_REPRESENTATION_CONTEXT(2) 
PARAMETRIC_REPRESENTATION_CONTEXT() REPRESENTATION_CONTEXT('2D SPACE',''
  ) );
#421 = PCURVE('',#422,#427);
#422 = CYLINDRICAL_SURFACE('',#423,4.505);
#423 = AXIS2_PLACEMENT_3D('',#424,#425,#426);
#424 = CARTESIAN_POINT('',(6.735819815998E-03,9.43834800376E-17,
    -0.103690436245));
#425 = DIRECTION('',(-0.,-0.,-1.));
#426 = DIRECTION('',(1.,0.,0.));
#427 = DEFINITIONAL_REPRESENTATION('',(#428),#432);
#428 = LINE('',#429,#430);
#429 = CARTESIAN_POINT('',(-0.,-9.));
#430 = VECTOR('',#431,1.);
#431 = DIRECTION('',(-1.,0.));
#432 = ( GEOMETRIC_REPRESENTATION_CONTEXT(2) 
PARAMETRIC_REPRESENTATION_CONTEXT() REPRESENTATION_CONTEXT('2D SPACE',''
  ) );
#433 = ADVANCED_FACE('',(#434),#422,.F.);
#434 = FACE_BOUND('',#435,.T.);
#435 = EDGE_LOOP('',(#436,#459,#460,#461));
#436 = ORIENTED_EDGE('',*,*,#437,.T.);
#437 = EDGE_CURVE('',#438,#406,#440,.T.);
#438 = VERTEX_POINT('',#439);
#439 = CARTESIAN_POINT('',(4.511735819816,9.43834800376E-17,
    -0.103690436245));
#440 = SEAM_CURVE('',#441,(#445,#452),.PCURVE_S1.);
#441 = LINE('',#442,#443);
#442 = CARTESIAN_POINT('',(4.511735819816,9.43834800376E-17,
    -0.103690436245));
#443 = VECTOR('',#444,1.);
#444 = DIRECTION('',(0.,0.,1.));
#445 = PCURVE('',#422,#446);
#446 = DEFINITIONAL_REPRESENTATION('',(#447),#451);
#447 = LINE('',#448,#449);
#448 = CARTESIAN_POINT('',(-0.,0.));
#449 = VECTOR('',#450,1.);
#450 = DIRECTION('',(-0.,-1.));
#451 = ( GEOMETRIC_REPRESENTATION_CONTEXT(2) 
PARAMETRIC_REPRESENTATION_CONTEXT() REPRESENTATION_CONTEXT('2D SPACE',''
  ) );
#452 = PCURVE('',#422,#453);
#453 = DEFINITIONAL_REPRESENTATION('',(#454),#458);
#454 = LINE('',#455,#456);
#455 = CARTESIAN_POINT('',(-6.28318530718,0.));
#456 = VECTOR('',#457,1.);
#457 = DIRECTION('',(-0.,-1.));
#458 = ( GEOMETRIC_REPRESENTATION_CONTEXT(2) 
PARAMETRIC_REPRESENTATION_CONTEXT() REPRESENTATION_CONTEXT('2D SPACE',''
  ) );
#459 = ORIENTED_EDGE('',*,*,#405,.T.);
#460 = ORIENTED_EDGE('',*,*,#437,.F.);
#461 = ORIENTED_EDGE('',*,*,#462,.F.);
#462 = EDGE_CURVE('',#438,#438,#463,.T.);
#463 = SURFACE_CURVE('',#464,(#469,#476),.PCURVE_S1.);
#464 = CIRCLE('',#465,4.505);
#465 = AXIS2_PLACEMENT_3D('',#466,#467,#468);
#466 = CARTESIAN_POINT('',(6.735819815998E-03,9.43834800376E-17,
    -0.103690436245));
#467 = DIRECTION('',(0.,0.,1.));
#468 = DIRECTION('',(1.,0.,0.));
#469 = PCURVE('',#422,#470);
#470 = DEFINITIONAL_REPRESENTATION('',(#471),#475);
#471 = LINE('',#472,#473);
#472 = CARTESIAN_POINT('',(-0.,0.));
#473 = VECTOR('',#474,1.);
#474 = DIRECTION('',(-1.,0.));
#475 = ( GEOMETRIC_REPRESENTATION_CONTEXT(2) 
PARAMETRIC_REPRESENTATION_CONTEXT() REPRESENTATION_CONTEXT('2D SPACE',''
  ) );
#476 = PCURVE('',#477,#605);
#477 = SURFACE_OF_REVOLUTION('',#478,#602);
#478 = B_SPLINE_CURVE_WITH_KNOTS('',3,(#479,#480,#481,#482,#483,#484,
    #485,#486,#487,#488,#489,#490,#491,#492,#493,#494,#495,#496,#497,
    #498,#499,#500,#501,#502,#503,#504,#505,#506,#507,#508,#509,#510,
    #511,#512,#513,#514,#515,#516,#517,#518,#519,#520,#521,#522,#523,
    #524,#525,#526,#527,#528,#529,#530,#531,#532,#533,#534,#535,#536,
    #537,#538,#539,#540,#541,#542,#543,#544,#545,#546,#547,#548,#549,
    #550,#551,#552,#553,#554,#555,#556,#557,#558,#559,#560,#561,#562,
    #563,#564,#565,#566,#567,#568,#569,#570,#571,#572,#573,#574,#575,
    #576,#577,#578,#579,#580,#581,#582,#583,#584,#585,#586,#587,#588,
    #589,#590,#591,#592,#593,#594,#595,#596,#597,#598,#599,#600,#601),
  .UNSPECIFIED.,.F.,.F.,(4,1,1,1,1,1,1,1,1,1,1,1,1,1,1,1,1,1,1,1,1,1,1,1
    ,1,1,1,1,1,1,1,1,1,1,1,1,1,1,1,1,1,1,1,1,1,1,1,1,1,1,1,1,1,1,1,1,1,1
    ,1,1,1,1,1,1,1,1,1,1,1,1,1,1,1,1,1,1,1,1,1,1,1,1,1,1,1,1,1,1,1,1,1,1
    ,1,1,1,1,1,1,1,1,1,1,1,1,1,1,1,1,1,1,1,1,1,1,1,1,1,1,1,1,4),(0.,
    1.452240939887E-02,2.904481879775E-02,4.356722819662E-02,
    5.80896375955E-02,7.261204699437E-02,8.713445639325E-02,
    0.101656865792,0.116179275191,0.13070168459,0.145224093989,
    0.159746503388,0.174268912786,0.188791322185,0.203313731584,
    0.217836140983,0.232358550382,0.246880959781,0.26140336918,
    0.275925778579,0.290448187977,0.304970597376,0.319493006775,
    0.334015416174,0.348537825573,0.363060234972,0.377582644371,
    0.39210505377,0.406627463168,0.421149872567,0.435672281966,
    0.450194691365,0.464717100764,0.479239510163,0.493761919562,
    0.508284328961,0.522806738359,0.537329147758,0.551851557157,
    0.566373966556,0.580896375955,0.63266378491,0.684431193865,
    0.73619860282,0.787966011775,0.83973342073,0.891500829684,
    0.943268238639,0.995035647594,1.046803056549,1.098570465504,
    1.150337874459,1.202105283414,1.253872692369,1.305640101324,
    1.357407510279,1.409174919233,1.460942328188,1.512709737143,
    1.564477146098,1.616244555053,1.668011964008,1.719779372963,
    1.771546781918,1.823314190873,1.875081599828,1.926849008782,
    1.978616417737,2.030383826692,2.082151235647,2.133918644602,
    2.185686053557,2.237453462512,2.289220871467,2.340988280422,
    2.392755689377,2.444523098332,2.496290507286,2.548057916241,
    2.599825325196,2.651592734151,2.703360143106,2.755127552061,
    2.806894961016,2.858662369971,2.910429778926,2.962197187881,
    3.013964596835,3.06573200579,3.117499414745,3.1692668237,
    3.221034232655,3.27280164161,3.324569050565,3.37633645952,
    3.428103868475,3.47987127743,3.531638686385,3.583406095339,
    3.635173504294,3.686940913249,3.738708322204,3.790475731159,
    3.842243140114,3.894010549069,3.945777958024,3.997545366979,
    4.049312775934,4.101080184889,4.152847593843,4.204615002798,
    4.256382411753,4.308149820708,4.359917229663,4.411684638618,
    4.463452047573,4.515219456528,4.566986865483,4.618754274438,
    4.670521683392,4.722289092347),.UNSPECIFIED.);
#479 = CARTESIAN_POINT('',(4.511735819816,9.43834800376E-17,
    -0.103690436245));
#480 = CARTESIAN_POINT('',(4.511735887835,9.43834800376E-17,
    -0.108531538703));
#481 = CARTESIAN_POINT('',(4.51155025439,9.43834800376E-17,
    -0.118213732574));
#482 = CARTESIAN_POINT('',(4.510715800671,9.43834800376E-17,
    -0.132715708479));
#483 = CARTESIAN_POINT('',(4.509326328483,9.43834800376E-17,
    -0.147175065756));
#484 = CARTESIAN_POINT('',(4.507383942248,9.43834800376E-17,
    -0.161570577521));
#485 = CARTESIAN_POINT('',(4.504891476631,9.43834800376E-17,
    -0.175881106809));
#486 = CARTESIAN_POINT('',(4.501852595802,9.43834800376E-17,
    -0.190085642454));
#487 = CARTESIAN_POINT('',(4.498271760351,9.43834800376E-17,
    -0.204163328639));
#488 = CARTESIAN_POINT('',(4.494154228158,9.43834800376E-17,
    -0.21809349587));
#489 = CARTESIAN_POINT('',(4.489506044685,9.43834800376E-17,
    -0.231855691225));
#490 = CARTESIAN_POINT('',(4.484334034635,9.43834800376E-17,
    -0.245429708412));
#491 = CARTESIAN_POINT('',(4.478645791786,9.43834800376E-17,
    -0.258795617428));
#492 = CARTESIAN_POINT('',(4.472449667881,9.43834800376E-17,
    -0.271933793828));
#493 = CARTESIAN_POINT('',(4.465754760357,9.43834800376E-17,
    -0.284824947531));
#494 = CARTESIAN_POINT('',(4.458570898987,9.43834800376E-17,
    -0.297450151148));
#495 = CARTESIAN_POINT('',(4.45090863145,9.43834800376E-17,
    -0.30979086777));
#496 = CARTESIAN_POINT('',(4.442779207842,9.43834800376E-17,
    -0.321828978184));
#497 = CARTESIAN_POINT('',(4.434194564159,9.43834800376E-17,
    -0.333546807479));
#498 = CARTESIAN_POINT('',(4.425167304774,9.43834800376E-17,
    -0.344927150995));
#499 = CARTESIAN_POINT('',(4.415710683926,9.43834800376E-17,
    -0.355953299584));
#500 = CARTESIAN_POINT('',(4.405838586266,9.43834800376E-17,
    -0.366609064143));
#501 = CARTESIAN_POINT('',(4.395565506464,9.43834800376E-17,
    -0.376878799384));
#502 = CARTESIAN_POINT('',(4.384906527932,9.43834800376E-17,
    -0.386747426807));
#503 = CARTESIAN_POINT('',(4.373877300678,9.43834800376E-17,
    -0.396200456836));
#504 = CARTESIAN_POINT('',(4.362494018323,9.43834800376E-17,
    -0.405224010092));
#505 = CARTESIAN_POINT('',(4.35077339433,9.43834800376E-17,
    -0.413804837778));
#506 = CARTESIAN_POINT('',(4.338732637463,9.43834800376E-17,
    -0.421930341123));
#507 = CARTESIAN_POINT('',(4.32638942652,9.43834800376E-17,
    -0.429588589892));
#508 = CARTESIAN_POINT('',(4.313761884373,9.43834800376E-17,
    -0.436768339869));
#509 = CARTESIAN_POINT('',(4.30086855137,9.43834800376E-17,
    -0.443459049486));
#510 = CARTESIAN_POINT('',(4.287728358087,9.43834800376E-17,
    -0.449650894855));
#511 = CARTESIAN_POINT('',(4.274360597608,9.43834800376E-17,
    -0.455334785866));
#512 = CARTESIAN_POINT('',(4.260784896943,9.43834800376E-17,
    -0.460502373262));
#513 = CARTESIAN_POINT('',(4.247021189142,9.43834800376E-17,
    -0.46514608433));
#514 = CARTESIAN_POINT('',(4.233089680566,9.43834800376E-17,
    -0.469259046549));
#515 = CARTESIAN_POINT('',(4.219010834136,9.43834800376E-17,
    -0.472835424132));
#516 = CARTESIAN_POINT('',(4.204805291082,9.43834800376E-17,
    -0.475869208267));
#517 = CARTESIAN_POINT('',(4.190494020553,9.43834800376E-17,
    -0.478358772795));
#518 = CARTESIAN_POINT('',(4.176097617348,9.43834800376E-17,
    -0.480289907492));
#519 = CARTESIAN_POINT('',(4.16163877771,9.43834800376E-17,
    -0.481699168514));
#520 = CARTESIAN_POINT('',(4.134732057608,9.43834800376E-17,
    -0.483068643571));
#521 = CARTESIAN_POINT('',(4.095399646963,9.43834800376E-17,
    -0.484306203007));
#522 = CARTESIAN_POINT('',(4.043671045343,9.43834800376E-17,
    -0.486323136015));
#523 = CARTESIAN_POINT('',(3.991937936757,9.43834800376E-17,
    -0.488204699305));
#524 = CARTESIAN_POINT('',(3.940204892925,9.43834800376E-17,
    -0.490091382069));
#525 = CARTESIAN_POINT('',(3.888470703655,9.43834800376E-17,
    -0.491945539801));
#526 = CARTESIAN_POINT('',(3.836735708013,9.43834800376E-17,
    -0.493777258784));
#527 = CARTESIAN_POINT('',(3.784999829941,9.43834800376E-17,
    -0.495583835882));
#528 = CARTESIAN_POINT('',(3.733263104616,9.43834800376E-17,
    -0.497365994879));
#529 = CARTESIAN_POINT('',(3.681525537409,9.43834800376E-17,
    -0.499123541328));
#530 = CARTESIAN_POINT('',(3.629787141677,9.43834800376E-17,
    -0.500856526825));
#531 = CARTESIAN_POINT('',(3.578047928638,9.43834800376E-17,
    -0.502564937049));
#532 = CARTESIAN_POINT('',(3.526307910084,9.43834800376E-17,
    -0.504248775346));
#533 = CARTESIAN_POINT('',(3.474567097653,9.43834800376E-17,
    -0.505908040338));
#534 = CARTESIAN_POINT('',(3.422825503023,9.43834800376E-17,
    -0.507542731917));
#535 = CARTESIAN_POINT('',(3.371083137863,9.43834800376E-17,
    -0.509152849643));
#536 = CARTESIAN_POINT('',(3.319340013846,9.43834800376E-17,
    -0.510738393173));
#537 = CARTESIAN_POINT('',(3.267596142641,9.43834800376E-17,
    -0.512299362143));
#538 = CARTESIAN_POINT('',(3.21585153592,9.43834800376E-17,
    -0.513835756202));
#539 = CARTESIAN_POINT('',(3.164106205355,9.43834800376E-17,
    -0.515347575005));
#540 = CARTESIAN_POINT('',(3.112360162617,9.43834800376E-17,
    -0.516834818209));
#541 = CARTESIAN_POINT('',(3.060613419378,9.43834800376E-17,
    -0.518297485479));
#542 = CARTESIAN_POINT('',(3.00886598731,9.43834800376E-17,
    -0.519735576487));
#543 = CARTESIAN_POINT('',(2.957117878084,9.43834800376E-17,
    -0.521149090906));
#544 = CARTESIAN_POINT('',(2.905369103374,9.43834800376E-17,
    -0.522538028418));
#545 = CARTESIAN_POINT('',(2.853619674852,9.43834800376E-17,
    -0.523902388711));
#546 = CARTESIAN_POINT('',(2.80186960419,9.43834800376E-17,
    -0.525242171475));
#547 = CARTESIAN_POINT('',(2.750118903061,9.43834800376E-17,
    -0.52655737641));
#548 = CARTESIAN_POINT('',(2.698367583137,9.43834800376E-17,
    -0.527848003218));
#549 = CARTESIAN_POINT('',(2.646615656092,9.43834800376E-17,
    -0.529114051609));
#550 = CARTESIAN_POINT('',(2.594863133599,9.43834800376E-17,
    -0.530355521296));
#551 = CARTESIAN_POINT('',(2.543110027331,9.43834800376E-17,-0.531572412
    ));
#552 = CARTESIAN_POINT('',(2.491356348961,9.43834800376E-17,
    -0.532764723446));
#553 = CARTESIAN_POINT('',(2.439602110163,9.43834800376E-17,
    -0.533932455365));
#554 = CARTESIAN_POINT('',(2.38784732261,9.43834800376E-17,
    -0.535075607494));
#555 = CARTESIAN_POINT('',(2.336091997977,9.43834800376E-17,
    -0.536194179575));
#556 = CARTESIAN_POINT('',(2.284336147937,9.43834800376E-17,
    -0.537288171356));
#557 = CARTESIAN_POINT('',(2.232579784164,9.43834800376E-17,
    -0.53835758259));
#558 = CARTESIAN_POINT('',(2.180822918332,9.43834800376E-17,
    -0.539402413035));
#559 = CARTESIAN_POINT('',(2.129065562116,9.43834800376E-17,
    -0.540422662457));
#560 = CARTESIAN_POINT('',(2.077307727189,9.43834800376E-17,
    -0.541418330624));
#561 = CARTESIAN_POINT('',(2.025549425227,9.43834800376E-17,
    -0.542389417313));
#562 = CARTESIAN_POINT('',(1.973790667903,9.43834800376E-17,
    -0.543335922305));
#563 = CARTESIAN_POINT('',(1.922031466893,9.43834800376E-17,
    -0.544257845385));
#564 = CARTESIAN_POINT('',(1.87027183387,9.43834800376E-17,
    -0.545155186346));
#565 = CARTESIAN_POINT('',(1.818511780511,9.43834800376E-17,
    -0.546027944985));
#566 = CARTESIAN_POINT('',(1.76675131849,9.43834800376E-17,
    -0.546876121106));
#567 = CARTESIAN_POINT('',(1.714990459481,9.43834800376E-17,
    -0.547699714517));
#568 = CARTESIAN_POINT('',(1.663229215161,9.43834800376E-17,
    -0.548498725033));
#569 = CARTESIAN_POINT('',(1.611467597204,9.43834800376E-17,
    -0.549273152474));
#570 = CARTESIAN_POINT('',(1.559705617286,9.43834800376E-17,
    -0.550022996663));
#571 = CARTESIAN_POINT('',(1.507943287081,9.43834800376E-17,
    -0.550748257434));
#572 = CARTESIAN_POINT('',(1.456180618266,9.43834800376E-17,
    -0.551448934621));
#573 = CARTESIAN_POINT('',(1.404417622515,9.43834800376E-17,
    -0.552125028067));
#574 = CARTESIAN_POINT('',(1.352654311506,9.43834800376E-17,
    -0.55277653762));
#575 = CARTESIAN_POINT('',(1.300890696912,9.43834800376E-17,
    -0.553403463132));
#576 = CARTESIAN_POINT('',(1.24912679041,9.43834800376E-17,
    -0.554005804462));
#577 = CARTESIAN_POINT('',(1.197362603676,9.43834800376E-17,
    -0.554583561474));
#578 = CARTESIAN_POINT('',(1.145598148386,9.43834800376E-17,
    -0.555136734038));
#579 = CARTESIAN_POINT('',(1.093833436215,9.43834800376E-17,
    -0.555665322029));
#580 = CARTESIAN_POINT('',(1.04206847884,9.43834800376E-17,
    -0.556169325328));
#581 = CARTESIAN_POINT('',(0.990303287936,9.43834800376E-17,
    -0.556648743821));
#582 = CARTESIAN_POINT('',(0.93853787518,9.43834800376E-17,-0.5571035774
    ));
#583 = CARTESIAN_POINT('',(0.886772252248,9.43834800376E-17,
    -0.557533825962));
#584 = CARTESIAN_POINT('',(0.835006430815,9.43834800376E-17,
    -0.557939489411));
#585 = CARTESIAN_POINT('',(0.783240422559,9.43834800376E-17,
    -0.558320567654));
#586 = CARTESIAN_POINT('',(0.731474239156,9.43834800376E-17,
    -0.558677060607));
#587 = CARTESIAN_POINT('',(0.679707892281,9.43834800376E-17,
    -0.559008968188));
#588 = CARTESIAN_POINT('',(0.627941393612,9.43834800376E-17,
    -0.559316290323));
#589 = CARTESIAN_POINT('',(0.576174754824,9.43834800376E-17,
    -0.559599026942));
#590 = CARTESIAN_POINT('',(0.524407987594,9.43834800376E-17,
    -0.559857177981));
#591 = CARTESIAN_POINT('',(0.472641103598,9.43834800376E-17,
    -0.560090743383));
#592 = CARTESIAN_POINT('',(0.420874114514,9.43834800376E-17,
    -0.560299723095));
#593 = CARTESIAN_POINT('',(0.369107032017,9.43834800376E-17,
    -0.560484117069));
#594 = CARTESIAN_POINT('',(0.317339867784,9.43834800376E-17,
    -0.560643925264));
#595 = CARTESIAN_POINT('',(0.265572633491,9.43834800376E-17,
    -0.560779147643));
#596 = CARTESIAN_POINT('',(0.213805340816,9.43834800376E-17,
    -0.560889784177));
#597 = CARTESIAN_POINT('',(0.162038001434,9.43834800376E-17,
    -0.560975834841));
#598 = CARTESIAN_POINT('',(0.110270627022,9.43834800376E-17,
    -0.561037299615));
#599 = CARTESIAN_POINT('',(5.850322925744E-02,9.43834800376E-17,
    -0.561074178484));
#600 = CARTESIAN_POINT('',(2.399162296315E-02,9.43834800376E-17,
    -0.56108237379));
#601 = CARTESIAN_POINT('',(6.735819816005E-03,9.43834800376E-17,
    -0.561082373789));
#602 = AXIS1_PLACEMENT('',#603,#604);
#603 = CARTESIAN_POINT('',(6.735819815998E-03,9.43834800376E-17,
    -0.103690436245));
#604 = DIRECTION('',(0.,0.,1.));
#605 = DEFINITIONAL_REPRESENTATION('',(#606),#610);
#606 = LINE('',#607,#608);
#607 = CARTESIAN_POINT('',(0.,0.));
#608 = VECTOR('',#609,1.);
#609 = DIRECTION('',(1.,0.));
#610 = ( GEOMETRIC_REPRESENTATION_CONTEXT(2) 
PARAMETRIC_REPRESENTATION_CONTEXT() REPRESENTATION_CONTEXT('2D SPACE',''
  ) );
#611 = ADVANCED_FACE('',(#612),#477,.T.);
#612 = FACE_BOUND('',#613,.T.);
#613 = EDGE_LOOP('',(#614,#757,#758));
#614 = ORIENTED_EDGE('',*,*,#615,.F.);
#615 = EDGE_CURVE('',#438,#616,#618,.T.);
#616 = VERTEX_POINT('',#617);
#617 = CARTESIAN_POINT('',(6.735819816005E-03,9.43834800376E-17,
    -0.561082373789));
#618 = SEAM_CURVE('',#619,(#743,#750),.PCURVE_S1.);
#619 = B_SPLINE_CURVE_WITH_KNOTS('',3,(#620,#621,#622,#623,#624,#625,
    #626,#627,#628,#629,#630,#631,#632,#633,#634,#635,#636,#637,#638,
    #639,#640,#641,#642,#643,#644,#645,#646,#647,#648,#649,#650,#651,
    #652,#653,#654,#655,#656,#657,#658,#659,#660,#661,#662,#663,#664,
    #665,#666,#667,#668,#669,#670,#671,#672,#673,#674,#675,#676,#677,
    #678,#679,#680,#681,#682,#683,#684,#685,#686,#687,#688,#689,#690,
    #691,#692,#693,#694,#695,#696,#697,#698,#699,#700,#701,#702,#703,
    #704,#705,#706,#707,#708,#709,#710,#711,#712,#713,#714,#715,#716,
    #717,#718,#719,#720,#721,#722,#723,#724,#725,#726,#727,#728,#729,
    #730,#731,#732,#733,#734,#735,#736,#737,#738,#739,#740,#741,#742),
  .UNSPECIFIED.,.F.,.F.,(4,1,1,1,1,1,1,1,1,1,1,1,1,1,1,1,1,1,1,1,1,1,1,1
    ,1,1,1,1,1,1,1,1,1,1,1,1,1,1,1,1,1,1,1,1,1,1,1,1,1,1,1,1,1,1,1,1,1,1
    ,1,1,1,1,1,1,1,1,1,1,1,1,1,1,1,1,1,1,1,1,1,1,1,1,1,1,1,1,1,1,1,1,1,1
    ,1,1,1,1,1,1,1,1,1,1,1,1,1,1,1,1,1,1,1,1,1,1,1,1,1,1,1,1,4),(0.,
    1.452240939887E-02,2.904481879775E-02,4.356722819662E-02,
    5.80896375955E-02,7.261204699437E-02,8.713445639325E-02,
    0.101656865792,0.116179275191,0.13070168459,0.145224093989,
    0.159746503388,0.174268912786,0.188791322185,0.203313731584,
    0.217836140983,0.232358550382,0.246880959781,0.26140336918,
    0.275925778579,0.290448187977,0.304970597376,0.319493006775,
    0.334015416174,0.348537825573,0.363060234972,0.377582644371,
    0.39210505377,0.406627463168,0.421149872567,0.435672281966,
    0.450194691365,0.464717100764,0.479239510163,0.493761919562,
    0.508284328961,0.522806738359,0.537329147758,0.551851557157,
    0.566373966556,0.580896375955,0.63266378491,0.684431193865,
    0.73619860282,0.787966011775,0.83973342073,0.891500829684,
    0.943268238639,0.995035647594,1.046803056549,1.098570465504,
    1.150337874459,1.202105283414,1.253872692369,1.305640101324,
    1.357407510279,1.409174919233,1.460942328188,1.512709737143,
    1.564477146098,1.616244555053,1.668011964008,1.719779372963,
    1.771546781918,1.823314190873,1.875081599828,1.926849008782,
    1.978616417737,2.030383826692,2.082151235647,2.133918644602,
    2.185686053557,2.237453462512,2.289220871467,2.340988280422,
    2.392755689377,2.444523098332,2.496290507286,2.548057916241,
    2.599825325196,2.651592734151,2.703360143106,2.755127552061,
    2.806894961016,2.858662369971,2.910429778926,2.962197187881,
    3.013964596835,3.06573200579,3.117499414745,3.1692668237,
    3.221034232655,3.27280164161,3.324569050565,3.37633645952,
    3.428103868475,3.47987127743,3.531638686385,3.583406095339,
    3.635173504294,3.686940913249,3.738708322204,3.790475731159,
    3.842243140114,3.894010549069,3.945777958024,3.997545366979,
    4.049312775934,4.101080184889,4.152847593843,4.204615002798,
    4.256382411753,4.308149820708,4.359917229663,4.411684638618,
    4.463452047573,4.515219456528,4.566986865483,4.618754274438,
    4.670521683392,4.722289092347),.UNSPECIFIED.);
#620 = CARTESIAN_POINT('',(4.511735819816,9.43834800376E-17,
    -0.103690436245));
#621 = CARTESIAN_POINT('',(4.511735887835,9.43834800376E-17,
    -0.108531538703));
#622 = CARTESIAN_POINT('',(4.51155025439,9.43834800376E-17,
    -0.118213732574));
#623 = CARTESIAN_POINT('',(4.510715800671,9.43834800376E-17,
    -0.132715708479));
#624 = CARTESIAN_POINT('',(4.509326328483,9.43834800376E-17,
    -0.147175065756));
#625 = CARTESIAN_POINT('',(4.507383942248,9.43834800376E-17,
    -0.161570577521));
#626 = CARTESIAN_POINT('',(4.504891476631,9.43834800376E-17,
    -0.175881106809));
#627 = CARTESIAN_POINT('',(4.501852595802,9.43834800376E-17,
    -0.190085642454));
#628 = CARTESIAN_POINT('',(4.498271760351,9.43834800376E-17,
    -0.204163328639));
#629 = CARTESIAN_POINT('',(4.494154228158,9.43834800376E-17,
    -0.21809349587));
#630 = CARTESIAN_POINT('',(4.489506044685,9.43834800376E-17,
    -0.231855691225));
#631 = CARTESIAN_POINT('',(4.484334034635,9.43834800376E-17,
    -0.245429708412));
#632 = CARTESIAN_POINT('',(4.478645791786,9.43834800376E-17,
    -0.258795617428));
#633 = CARTESIAN_POINT('',(4.472449667881,9.43834800376E-17,
    -0.271933793828));
#634 = CARTESIAN_POINT('',(4.465754760357,9.43834800376E-17,
    -0.284824947531));
#635 = CARTESIAN_POINT('',(4.458570898987,9.43834800376E-17,
    -0.297450151148));
#636 = CARTESIAN_POINT('',(4.45090863145,9.43834800376E-17,
    -0.30979086777));
#637 = CARTESIAN_POINT('',(4.442779207842,9.43834800376E-17,
    -0.321828978184));
#638 = CARTESIAN_POINT('',(4.434194564159,9.43834800376E-17,
    -0.333546807479));
#639 = CARTESIAN_POINT('',(4.425167304774,9.43834800376E-17,
    -0.344927150995));
#640 = CARTESIAN_POINT('',(4.415710683926,9.43834800376E-17,
    -0.355953299584));
#641 = CARTESIAN_POINT('',(4.405838586266,9.43834800376E-17,
    -0.366609064143));
#642 = CARTESIAN_POINT('',(4.395565506464,9.43834800376E-17,
    -0.376878799384));
#643 = CARTESIAN_POINT('',(4.384906527932,9.43834800376E-17,
    -0.386747426807));
#644 = CARTESIAN_POINT('',(4.373877300678,9.43834800376E-17,
    -0.396200456836));
#645 = CARTESIAN_POINT('',(4.362494018323,9.43834800376E-17,
    -0.405224010092));
#646 = CARTESIAN_POINT('',(4.35077339433,9.43834800376E-17,
    -0.413804837778));
#647 = CARTESIAN_POINT('',(4.338732637463,9.43834800376E-17,
    -0.421930341123));
#648 = CARTESIAN_POINT('',(4.32638942652,9.43834800376E-17,
    -0.429588589892));
#649 = CARTESIAN_POINT('',(4.313761884373,9.43834800376E-17,
    -0.436768339869));
#650 = CARTESIAN_POINT('',(4.30086855137,9.43834800376E-17,
    -0.443459049486));
#651 = CARTESIAN_POINT('',(4.287728358087,9.43834800376E-17,
    -0.449650894855));
#652 = CARTESIAN_POINT('',(4.274360597608,9.43834800376E-17,
    -0.455334785866));
#653 = CARTESIAN_POINT('',(4.260784896943,9.43834800376E-17,
    -0.460502373262));
#654 = CARTESIAN_POINT('',(4.247021189142,9.43834800376E-17,
    -0.46514608433));
#655 = CARTESIAN_POINT('',(4.233089680566,9.43834800376E-17,
    -0.469259046549));
#656 = CARTESIAN_POINT('',(4.219010834136,9.43834800376E-17,
    -0.472835424132));
#657 = CARTESIAN_POINT('',(4.204805291082,9.43834800376E-17,
    -0.475869208267));
#658 = CARTESIAN_POINT('',(4.190494020553,9.43834800376E-17,
    -0.478358772795));
#659 = CARTESIAN_POINT('',(4.176097617348,9.43834800376E-17,
    -0.480289907492));
#660 = CARTESIAN_POINT('',(4.16163877771,9.43834800376E-17,
    -0.481699168514));
#661 = CARTESIAN_POINT('',(4.134732057608,9.43834800376E-17,
    -0.483068643571));
#662 = CARTESIAN_POINT('',(4.095399646963,9.43834800376E-17,
    -0.484306203007));
#663 = CARTESIAN_POINT('',(4.043671045343,9.43834800376E-17,
    -0.486323136015));
#664 = CARTESIAN_POINT('',(3.991937936757,9.43834800376E-17,
    -0.488204699305));
#665 = CARTESIAN_POINT('',(3.940204892925,9.43834800376E-17,
    -0.490091382069));
#666 = CARTESIAN_POINT('',(3.888470703655,9.43834800376E-17,
    -0.491945539801));
#667 = CARTESIAN_POINT('',(3.836735708013,9.43834800376E-17,
    -0.493777258784));
#668 = CARTESIAN_POINT('',(3.784999829941,9.43834800376E-17,
    -0.495583835882));
#669 = CARTESIAN_POINT('',(3.733263104616,9.43834800376E-17,
    -0.497365994879));
#670 = CARTESIAN_POINT('',(3.681525537409,9.43834800376E-17,
    -0.499123541328));
#671 = CARTESIAN_POINT('',(3.629787141677,9.43834800376E-17,
    -0.500856526825));
#672 = CARTESIAN_POINT('',(3.578047928638,9.43834800376E-17,
    -0.502564937049));
#673 = CARTESIAN_POINT('',(3.526307910084,9.43834800376E-17,
    -0.504248775346));
#674 = CARTESIAN_POINT('',(3.474567097653,9.43834800376E-17,
    -0.505908040338));
#675 = CARTESIAN_POINT('',(3.422825503023,9.43834800376E-17,
    -0.507542731917));
#676 = CARTESIAN_POINT('',(3.371083137863,9.43834800376E-17,
    -0.509152849643));
#677 = CARTESIAN_POINT('',(3.319340013846,9.43834800376E-17,
    -0.510738393173));
#678 = CARTESIAN_POINT('',(3.267596142641,9.43834800376E-17,
    -0.512299362143));
#679 = CARTESIAN_POINT('',(3.21585153592,9.43834800376E-17,
    -0.513835756202));
#680 = CARTESIAN_POINT('',(3.164106205355,9.43834800376E-17,
    -0.515347575005));
#681 = CARTESIAN_POINT('',(3.112360162617,9.43834800376E-17,
    -0.516834818209));
#682 = CARTESIAN_POINT('',(3.060613419378,9.43834800376E-17,
    -0.518297485479));
#683 = CARTESIAN_POINT('',(3.00886598731,9.43834800376E-17,
    -0.519735576487));
#684 = CARTESIAN_POINT('',(2.957117878084,9.43834800376E-17,
    -0.521149090906));
#685 = CARTESIAN_POINT('',(2.905369103374,9.43834800376E-17,
    -0.522538028418));
#686 = CARTESIAN_POINT('',(2.853619674852,9.43834800376E-17,
    -0.523902388711));
#687 = CARTESIAN_POINT('',(2.80186960419,9.43834800376E-17,
    -0.525242171475));
#688 = CARTESIAN_POINT('',(2.750118903061,9.43834800376E-17,
    -0.52655737641));
#689 = CARTESIAN_POINT('',(2.698367583137,9.43834800376E-17,
    -0.527848003218));
#690 = CARTESIAN_POINT('',(2.646615656092,9.43834800376E-17,
    -0.529114051609));
#691 = CARTESIAN_POINT('',(2.594863133599,9.43834800376E-17,
    -0.530355521296));
#692 = CARTESIAN_POINT('',(2.543110027331,9.43834800376E-17,-0.531572412
    ));
#693 = CARTESIAN_POINT('',(2.491356348961,9.43834800376E-17,
    -0.532764723446));
#694 = CARTESIAN_POINT('',(2.439602110163,9.43834800376E-17,
    -0.533932455365));
#695 = CARTESIAN_POINT('',(2.38784732261,9.43834800376E-17,
    -0.535075607494));
#696 = CARTESIAN_POINT('',(2.336091997977,9.43834800376E-17,
    -0.536194179575));
#697 = CARTESIAN_POINT('',(2.284336147937,9.43834800376E-17,
    -0.537288171356));
#698 = CARTESIAN_POINT('',(2.232579784164,9.43834800376E-17,
    -0.53835758259));
#699 = CARTESIAN_POINT('',(2.180822918332,9.43834800376E-17,
    -0.539402413035));
#700 = CARTESIAN_POINT('',(2.129065562116,9.43834800376E-17,
    -0.540422662457));
#701 = CARTESIAN_POINT('',(2.077307727189,9.43834800376E-17,
    -0.541418330624));
#702 = CARTESIAN_POINT('',(2.025549425227,9.43834800376E-17,
    -0.542389417313));
#703 = CARTESIAN_POINT('',(1.973790667903,9.43834800376E-17,
    -0.543335922305));
#704 = CARTESIAN_POINT('',(1.922031466893,9.43834800376E-17,
    -0.544257845385));
#705 = CARTESIAN_POINT('',(1.87027183387,9.43834800376E-17,
    -0.545155186346));
#706 = CARTESIAN_POINT('',(1.818511780511,9.43834800376E-17,
    -0.546027944985));
#707 = CARTESIAN_POINT('',(1.76675131849,9.43834800376E-17,
    -0.546876121106));
#708 = CARTESIAN_POINT('',(1.714990459481,9.43834800376E-17,
    -0.547699714517));
#709 = CARTESIAN_POINT('',(1.663229215161,9.43834800376E-17,
    -0.548498725033));
#710 = CARTESIAN_POINT('',(1.611467597204,9.43834800376E-17,
    -0.549273152474));
#711 = CARTESIAN_POINT('',(1.559705617286,9.43834800376E-17,
    -0.550022996663));
#712 = CARTESIAN_POINT('',(1.507943287081,9.43834800376E-17,
    -0.550748257434));
#713 = CARTESIAN_POINT('',(1.456180618266,9.43834800376E-17,
    -0.551448934621));
#714 = CARTESIAN_POINT('',(1.404417622515,9.43834800376E-17,
    -0.552125028067));
#715 = CARTESIAN_POINT('',(1.352654311506,9.43834800376E-17,
    -0.55277653762));
#716 = CARTESIAN_POINT('',(1.300890696912,9.43834800376E-17,
    -0.553403463132));
#717 = CARTESIAN_POINT('',(1.24912679041,9.43834800376E-17,
    -0.554005804462));
#718 = CARTESIAN_POINT('',(1.197362603676,9.43834800376E-17,
    -0.554583561474));
#719 = CARTESIAN_POINT('',(1.145598148386,9.43834800376E-17,
    -0.555136734038));
#720 = CARTESIAN_POINT('',(1.093833436215,9.43834800376E-17,
    -0.555665322029));
#721 = CARTESIAN_POINT('',(1.04206847884,9.43834800376E-17,
    -0.556169325328));
#722 = CARTESIAN_POINT('',(0.990303287936,9.43834800376E-17,
    -0.556648743821));
#723 = CARTESIAN_POINT('',(0.93853787518,9.43834800376E-17,-0.5571035774
    ));
#724 = CARTESIAN_POINT('',(0.886772252248,9.43834800376E-17,
    -0.557533825962));
#725 = CARTESIAN_POINT('',(0.835006430815,9.43834800376E-17,
    -0.557939489411));
#726 = CARTESIAN_POINT('',(0.783240422559,9.43834800376E-17,
    -0.558320567654));
#727 = CARTESIAN_POINT('',(0.731474239156,9.43834800376E-17,
    -0.558677060607));
#728 = CARTESIAN_POINT('',(0.679707892281,9.43834800376E-17,
    -0.559008968188));
#729 = CARTESIAN_POINT('',(0.627941393612,9.43834800376E-17,
    -0.559316290323));
#730 = CARTESIAN_POINT('',(0.576174754824,9.43834800376E-17,
    -0.559599026942));
#731 = CARTESIAN_POINT('',(0.524407987594,9.43834800376E-17,
    -0.559857177981));
#732 = CARTESIAN_POINT('',(0.472641103598,9.43834800376E-17,
    -0.560090743383));
#733 = CARTESIAN_POINT('',(0.420874114514,9.43834800376E-17,
    -0.560299723095));
#734 = CARTESIAN_POINT('',(0.369107032017,9.43834800376E-17,
    -0.560484117069));
#735 = CARTESIAN_POINT('',(0.317339867784,9.43834800376E-17,
    -0.560643925264));
#736 = CARTESIAN_POINT('',(0.265572633491,9.43834800376E-17,
    -0.560779147643));
#737 = CARTESIAN_POINT('',(0.213805340816,9.43834800376E-17,
    -0.560889784177));
#738 = CARTESIAN_POINT('',(0.162038001434,9.43834800376E-17,
    -0.560975834841));
#739 = CARTESIAN_POINT('',(0.110270627022,9.43834800376E-17,
    -0.561037299615));
#740 = CARTESIAN_POINT('',(5.850322925744E-02,9.43834800376E-17,
    -0.561074178484));
#741 = CARTESIAN_POINT('',(2.399162296315E-02,9.43834800376E-17,
    -0.56108237379));
#742 = CARTESIAN_POINT('',(6.735819816005E-03,9.43834800376E-17,
    -0.561082373789));
#743 = PCURVE('',#477,#744);
#744 = DEFINITIONAL_REPRESENTATION('',(#745),#749);
#745 = LINE('',#746,#747);
#746 = CARTESIAN_POINT('',(0.,0.));
#747 = VECTOR('',#748,1.);
#748 = DIRECTION('',(0.,1.));
#749 = ( GEOMETRIC_REPRESENTATION_CONTEXT(2) 
PARAMETRIC_REPRESENTATION_CONTEXT() REPRESENTATION_CONTEXT('2D SPACE',''
  ) );
#750 = PCURVE('',#477,#751);
#751 = DEFINITIONAL_REPRESENTATION('',(#752),#756);
#752 = LINE('',#753,#754);
#753 = CARTESIAN_POINT('',(6.28318530718,0.));
#754 = VECTOR('',#755,1.);
#755 = DIRECTION('',(0.,1.));
#756 = ( GEOMETRIC_REPRESENTATION_CONTEXT(2) 
PARAMETRIC_REPRESENTATION_CONTEXT() REPRESENTATION_CONTEXT('2D SPACE',''
  ) );
#757 = ORIENTED_EDGE('',*,*,#462,.T.);
#758 = ORIENTED_EDGE('',*,*,#615,.T.);
#759 = ( GEOMETRIC_REPRESENTATION_CONTEXT(3) 
GLOBAL_UNCERTAINTY_ASSIGNED_CONTEXT((#763)) GLOBAL_UNIT_ASSIGNED_CONTEXT
((#760,#761,#762)) REPRESENTATION_CONTEXT('Context #1',
  '3D Context with UNIT and UNCERTAINTY') );
#760 = ( LENGTH_UNIT() NAMED_UNIT(*) SI_UNIT(.MILLI.,.METRE.) );
#761 = ( NAMED_UNIT(*) PLANE_ANGLE_UNIT() SI_UNIT($,.RADIAN.) );
#762 = ( NAMED_UNIT(*) SI_UNIT($,.STERADIAN.) SOLID_ANGLE_UNIT() );
#763 = UNCERTAINTY_MEASURE_WITH_UNIT(LENGTH_MEASURE(1.E-07),#760,
  'distance_accuracy_value','confusion accuracy');
#764 = CONTEXT_DEPENDENT_SHAPE_REPRESENTATION(#765,#767);
#765 = ( REPRESENTATION_RELATIONSHIP('','',#36,#10) 
REPRESENTATION_RELATIONSHIP_WITH_TRANSFORMATION(#766) 
SHAPE_REPRESENTATION_RELATIONSHIP() );
#766 = ITEM_DEFINED_TRANSFORMATION('','',#11,#15);
#767 = PRODUCT_DEFINITION_SHAPE('Placement','Placement of an item',#768
  );
#768 = NEXT_ASSEMBLY_USAGE_OCCURRENCE('3','','',#5,#31,$);
#769 = PRODUCT_RELATED_PRODUCT_CATEGORY('part',$,(#33));
#770 = SHAPE_DEFINITION_REPRESENTATION(#771,#777);
#771 = PRODUCT_DEFINITION_SHAPE('','',#772);
#772 = PRODUCT_DEFINITION('design','',#773,#776);
#773 = PRODUCT_DEFINITION_FORMATION('','',#774);
#774 = PRODUCT('Open CASCADE STEP translator 7.8 2.2',
  'Open CASCADE STEP translator 7.8 2.2','',(#775));
#775 = PRODUCT_CONTEXT('',#2,'mechanical');
#776 = PRODUCT_DEFINITION_CONTEXT('part definition',#2,'design');
#777 = ADVANCED_BREP_SHAPE_REPRESENTATION('',(#11,#778),#960);
#778 = MANIFOLD_SOLID_BREP('',#779);
#779 = CLOSED_SHELL('',(#780,#868,#903,#933));
#780 = ADVANCED_FACE('',(#781),#794,.T.);
#781 = FACE_BOUND('',#782,.T.);
#782 = EDGE_LOOP('',(#783,#817,#840,#867));
#783 = ORIENTED_EDGE('',*,*,#784,.F.);
#784 = EDGE_CURVE('',#785,#785,#787,.T.);
#785 = VERTEX_POINT('',#786);
#786 = CARTESIAN_POINT('',(5.,-1.35712045033E-15,9.25));
#787 = SURFACE_CURVE('',#788,(#793,#805),.PCURVE_S1.);
#788 = CIRCLE('',#789,5.);
#789 = AXIS2_PLACEMENT_3D('',#790,#791,#792);
#790 = CARTESIAN_POINT('',(7.866950677424E-16,-1.32473651183E-16,9.25));
#791 = DIRECTION('',(0.,0.,1.));
#792 = DIRECTION('',(1.,0.,0.));
#793 = PCURVE('',#794,#799);
#794 = CYLINDRICAL_SURFACE('',#795,5.);
#795 = AXIS2_PLACEMENT_3D('',#796,#797,#798);
#796 = CARTESIAN_POINT('',(7.866950677424E-16,-1.32473651183E-16,8.75));
#797 = DIRECTION('',(0.,0.,1.));
#798 = DIRECTION('',(1.,0.,0.));
#799 = DEFINITIONAL_REPRESENTATION('',(#800),#804);
#800 = LINE('',#801,#802);
#801 = CARTESIAN_POINT('',(0.,0.5));
#802 = VECTOR('',#803,1.);
#803 = DIRECTION('',(1.,0.));
#804 = ( GEOMETRIC_REPRESENTATION_CONTEXT(2) 
PARAMETRIC_REPRESENTATION_CONTEXT() REPRESENTATION_CONTEXT('2D SPACE',''
  ) );
#805 = PCURVE('',#806,#811);
#806 = PLANE('',#807);
#807 = AXIS2_PLACEMENT_3D('',#808,#809,#810);
#808 = CARTESIAN_POINT('',(7.866950677424E-16,-1.32473651183E-16,9.25));
#809 = DIRECTION('',(0.,0.,1.));
#810 = DIRECTION('',(1.,0.,0.));
#811 = DEFINITIONAL_REPRESENTATION('',(#812),#816);
#812 = CIRCLE('',#813,5.);
#813 = AXIS2_PLACEMENT_2D('',#814,#815);
#814 = CARTESIAN_POINT('',(0.,0.));
#815 = DIRECTION('',(1.,0.));
#816 = ( GEOMETRIC_REPRESENTATION_CONTEXT(2) 
PARAMETRIC_REPRESENTATION_CONTEXT() REPRESENTATION_CONTEXT('2D SPACE',''
  ) );
#817 = ORIENTED_EDGE('',*,*,#818,.F.);
#818 = EDGE_CURVE('',#819,#785,#821,.T.);
#819 = VERTEX_POINT('',#820);
#820 = CARTESIAN_POINT('',(5.,-1.35712045033E-15,8.75));
#821 = SEAM_CURVE('',#822,(#826,#833),.PCURVE_S1.);
#822 = LINE('',#823,#824);
#823 = CARTESIAN_POINT('',(5.,-1.35712045033E-15,8.75));
#824 = VECTOR('',#825,1.);
#825 = DIRECTION('',(0.,0.,1.));
#826 = PCURVE('',#794,#827);
#827 = DEFINITIONAL_REPRESENTATION('',(#828),#832);
#828 = LINE('',#829,#830);
#829 = CARTESIAN_POINT('',(6.28318530718,-0.));
#830 = VECTOR('',#831,1.);
#831 = DIRECTION('',(0.,1.));
#832 = ( GEOMETRIC_REPRESENTATION_CONTEXT(2) 
PARAMETRIC_REPRESENTATION_CONTEXT() REPRESENTATION_CONTEXT('2D SPACE',''
  ) );
#833 = PCURVE('',#794,#834);
#834 = DEFINITIONAL_REPRESENTATION('',(#835),#839);
#835 = LINE('',#836,#837);
#836 = CARTESIAN_POINT('',(0.,-0.));
#837 = VECTOR('',#838,1.);
#838 = DIRECTION('',(0.,1.));
#839 = ( GEOMETRIC_REPRESENTATION_CONTEXT(2) 
PARAMETRIC_REPRESENTATION_CONTEXT() REPRESENTATION_CONTEXT('2D SPACE',''
  ) );
#840 = ORIENTED_EDGE('',*,*,#841,.T.);
#841 = EDGE_CURVE('',#819,#819,#842,.T.);
#842 = SURFACE_CURVE('',#843,(#848,#855),.PCURVE_S1.);
#843 = CIRCLE('',#844,5.);
#844 = AXIS2_PLACEMENT_3D('',#845,#846,#847);
#845 = CARTESIAN_POINT('',(7.866950677424E-16,-1.32473651183E-16,8.75));
#846 = DIRECTION('',(0.,0.,1.));
#847 = DIRECTION('',(1.,0.,0.));
#848 = PCURVE('',#794,#849);
#849 = DEFINITIONAL_REPRESENTATION('',(#850),#854);
#850 = LINE('',#851,#852);
#851 = CARTESIAN_POINT('',(0.,0.));
#852 = VECTOR('',#853,1.);
#853 = DIRECTION('',(1.,0.));
#854 = ( GEOMETRIC_REPRESENTATION_CONTEXT(2) 
PARAMETRIC_REPRESENTATION_CONTEXT() REPRESENTATION_CONTEXT('2D SPACE',''
  ) );
#855 = PCURVE('',#856,#861);
#856 = PLANE('',#857);
#857 = AXIS2_PLACEMENT_3D('',#858,#859,#860);
#858 = CARTESIAN_POINT('',(7.866950677424E-16,-1.32473651183E-16,8.75));
#859 = DIRECTION('',(0.,0.,1.));
#860 = DIRECTION('',(1.,0.,0.));
#861 = DEFINITIONAL_REPRESENTATION('',(#862),#866);
#862 = CIRCLE('',#863,5.);
#863 = AXIS2_PLACEMENT_2D('',#864,#865);
#864 = CARTESIAN_POINT('',(0.,0.));
#865 = DIRECTION('',(1.,0.));
#866 = ( GEOMETRIC_REPRESENTATION_CONTEXT(2) 
PARAMETRIC_REPRESENTATION_CONTEXT() REPRESENTATION_CONTEXT('2D SPACE',''
  ) );
#867 = ORIENTED_EDGE('',*,*,#818,.T.);
#868 = ADVANCED_FACE('',(#869,#872),#806,.T.);
#869 = FACE_BOUND('',#870,.T.);
#870 = EDGE_LOOP('',(#871));
#871 = ORIENTED_EDGE('',*,*,#784,.T.);
#872 = FACE_BOUND('',#873,.T.);
#873 = EDGE_LOOP('',(#874));
#874 = ORIENTED_EDGE('',*,*,#875,.F.);
#875 = EDGE_CURVE('',#876,#876,#878,.T.);
#876 = VERTEX_POINT('',#877);
#877 = CARTESIAN_POINT('',(1.112,-4.048350993134E-16,9.25));
#878 = SURFACE_CURVE('',#879,(#884,#891),.PCURVE_S1.);
#879 = CIRCLE('',#880,1.112);
#880 = AXIS2_PLACEMENT_3D('',#881,#882,#883);
#881 = CARTESIAN_POINT('',(7.866950677424E-16,-1.32473651183E-16,9.25));
#882 = DIRECTION('',(0.,0.,1.));
#883 = DIRECTION('',(1.,0.,-0.));
#884 = PCURVE('',#806,#885);
#885 = DEFINITIONAL_REPRESENTATION('',(#886),#890);
#886 = CIRCLE('',#887,1.112);
#887 = AXIS2_PLACEMENT_2D('',#888,#889);
#888 = CARTESIAN_POINT('',(0.,0.));
#889 = DIRECTION('',(1.,0.));
#890 = ( GEOMETRIC_REPRESENTATION_CONTEXT(2) 
PARAMETRIC_REPRESENTATION_CONTEXT() REPRESENTATION_CONTEXT('2D SPACE',''
  ) );
#891 = PCURVE('',#892,#897);
#892 = CYLINDRICAL_SURFACE('',#893,1.112);
#893 = AXIS2_PLACEMENT_3D('',#894,#895,#896);
#894 = CARTESIAN_POINT('',(7.866950677424E-16,-1.32473651183E-16,8.749)
  );
#895 = DIRECTION('',(0.,0.,1.));
#896 = DIRECTION('',(1.,0.,0.));
#897 = DEFINITIONAL_REPRESENTATION('',(#898),#902);
#898 = LINE('',#899,#900);
#899 = CARTESIAN_POINT('',(0.,0.501));
#900 = VECTOR('',#901,1.);
#901 = DIRECTION('',(1.,0.));
#902 = ( GEOMETRIC_REPRESENTATION_CONTEXT(2) 
PARAMETRIC_REPRESENTATION_CONTEXT() REPRESENTATION_CONTEXT('2D SPACE',''
  ) );
#903 = ADVANCED_FACE('',(#904,#907),#856,.F.);
#904 = FACE_BOUND('',#905,.F.);
#905 = EDGE_LOOP('',(#906));
#906 = ORIENTED_EDGE('',*,*,#841,.T.);
#907 = FACE_BOUND('',#908,.F.);
#908 = EDGE_LOOP('',(#909));
#909 = ORIENTED_EDGE('',*,*,#910,.F.);
#910 = EDGE_CURVE('',#911,#911,#913,.T.);
#911 = VERTEX_POINT('',#912);
#912 = CARTESIAN_POINT('',(1.112,-4.048350993134E-16,8.75));
#913 = SURFACE_CURVE('',#914,(#919,#926),.PCURVE_S1.);
#914 = CIRCLE('',#915,1.112);
#915 = AXIS2_PLACEMENT_3D('',#916,#917,#918);
#916 = CARTESIAN_POINT('',(7.866950677424E-16,-1.32473651183E-16,8.75));
#917 = DIRECTION('',(0.,0.,1.));
#918 = DIRECTION('',(1.,0.,-0.));
#919 = PCURVE('',#856,#920);
#920 = DEFINITIONAL_REPRESENTATION('',(#921),#925);
#921 = CIRCLE('',#922,1.112);
#922 = AXIS2_PLACEMENT_2D('',#923,#924);
#923 = CARTESIAN_POINT('',(0.,0.));
#924 = DIRECTION('',(1.,0.));
#925 = ( GEOMETRIC_REPRESENTATION_CONTEXT(2) 
PARAMETRIC_REPRESENTATION_CONTEXT() REPRESENTATION_CONTEXT('2D SPACE',''
  ) );
#926 = PCURVE('',#892,#927);
#927 = DEFINITIONAL_REPRESENTATION('',(#928),#932);
#928 = LINE('',#929,#930);
#929 = CARTESIAN_POINT('',(0.,1.E-03));
#930 = VECTOR('',#931,1.);
#931 = DIRECTION('',(1.,0.));
#932 = ( GEOMETRIC_REPRESENTATION_CONTEXT(2) 
PARAMETRIC_REPRESENTATION_CONTEXT() REPRESENTATION_CONTEXT('2D SPACE',''
  ) );
#933 = ADVANCED_FACE('',(#934),#892,.F.);
#934 = FACE_BOUND('',#935,.F.);
#935 = EDGE_LOOP('',(#936,#937,#958,#959));
#936 = ORIENTED_EDGE('',*,*,#875,.F.);
#937 = ORIENTED_EDGE('',*,*,#938,.F.);
#938 = EDGE_CURVE('',#911,#876,#939,.T.);
#939 = SEAM_CURVE('',#940,(#944,#951),.PCURVE_S1.);
#940 = LINE('',#941,#942);
#941 = CARTESIAN_POINT('',(1.112,-4.048350993134E-16,8.749));
#942 = VECTOR('',#943,1.);
#943 = DIRECTION('',(0.,0.,1.));
#944 = PCURVE('',#892,#945);
#945 = DEFINITIONAL_REPRESENTATION('',(#946),#950);
#946 = LINE('',#947,#948);
#947 = CARTESIAN_POINT('',(6.28318530718,-0.));
#948 = VECTOR('',#949,1.);
#949 = DIRECTION('',(0.,1.));
#950 = ( GEOMETRIC_REPRESENTATION_CONTEXT(2) 
PARAMETRIC_REPRESENTATION_CONTEXT() REPRESENTATION_CONTEXT('2D SPACE',''
  ) );
#951 = PCURVE('',#892,#952);
#952 = DEFINITIONAL_REPRESENTATION('',(#953),#957);
#953 = LINE('',#954,#955);
#954 = CARTESIAN_POINT('',(0.,-0.));
#955 = VECTOR('',#956,1.);
#956 = DIRECTION('',(0.,1.));
#957 = ( GEOMETRIC_REPRESENTATION_CONTEXT(2) 
PARAMETRIC_REPRESENTATION_CONTEXT() REPRESENTATION_CONTEXT('2D SPACE',''
  ) );
#958 = ORIENTED_EDGE('',*,*,#910,.T.);
#959 = ORIENTED_EDGE('',*,*,#938,.T.);
#960 = ( GEOMETRIC_REPRESENTATION_CONTEXT(3) 
GLOBAL_UNCERTAINTY_ASSIGNED_CONTEXT((#964)) GLOBAL_UNIT_ASSIGNED_CONTEXT
((#961,#962,#963)) REPRESENTATION_CONTEXT('Context #1',
  '3D Context with UNIT and UNCERTAINTY') );
#961 = ( LENGTH_UNIT() NAMED_UNIT(*) SI_UNIT(.MILLI.,.METRE.) );
#962 = ( NAMED_UNIT(*) PLANE_ANGLE_UNIT() SI_UNIT($,.RADIAN.) );
#963 = ( NAMED_UNIT(*) SI_UNIT($,.STERADIAN.) SOLID_ANGLE_UNIT() );
#964 = UNCERTAINTY_MEASURE_WITH_UNIT(LENGTH_MEASURE(1.E-07),#961,
  'distance_accuracy_value','confusion accuracy');
#965 = CONTEXT_DEPENDENT_SHAPE_REPRESENTATION(#966,#968);
#966 = ( REPRESENTATION_RELATIONSHIP('','',#777,#10) 
REPRESENTATION_RELATIONSHIP_WITH_TRANSFORMATION(#967) 
SHAPE_REPRESENTATION_RELATIONSHIP() );
#967 = ITEM_DEFINED_TRANSFORMATION('','',#11,#19);
#968 = PRODUCT_DEFINITION_SHAPE('Placement','Placement of an item',#969
  );
#969 = NEXT_ASSEMBLY_USAGE_OCCURRENCE('4','','',#5,#772,$);
#970 = PRODUCT_RELATED_PRODUCT_CATEGORY('part',$,(#774));
ENDSEC;
END-ISO-10303-21;
